<?xml version="1.0" encoding="utf-8"?>
<!-- Generator: Adobe Illustrator 26.5.0, SVG Export Plug-In . SVG Version: 6.00 Build 0)  -->
<svg version="1.1" id="Capa_1" xmlns="http://www.w3.org/2000/svg" xmlns:xlink="http://www.w3.org/1999/xlink" x="0px" y="0px"
	 viewBox="0 0 512 512" style="enable-background:new 0 0 512 512;" xml:space="preserve">
<style type="text/css">
	.st0{fill:#CC3333;}
	.st1{fill:#6600FF;}
	.st2{fill:#339933;}
	.st3{fill:#A360FF;}
	.st4{fill:#7900FF;}
	.st5{fill:#999999;}
	.st6{fill:#FFFFFF;}
	.st7{fill:#CCCCCC;}
	.st8{fill:#666666;}
	.st9{fill:#914DFD;}
	.st10{fill:#A166FD;}
	.st11{fill:#D1B0FF;}
	.st12{fill:#E0CCFF;}
	.st13{fill:#A366FF;}
	.st14{fill:#944DFF;}
	.st15{fill:#F2F2F2;}
	.st16{clip-path:url(#SVGID_00000070082954830847545380000007461770335972100793_);}
	.st17{clip-path:url(#SVGID_00000123429565655171373050000018409413046894787725_);}
	.st18{clip-path:url(#SVGID_00000109747924623456450340000010779373890430039439_);}
	.st19{clip-path:url(#SVGID_00000051371243353380697260000017914810134155558811_);}
	.st20{clip-path:url(#SVGID_00000062166389616067017680000004727733785621376953_);}
	.st21{clip-path:url(#SVGID_00000062892886693146025280000004547842161981054597_);}
	.st22{clip-path:url(#SVGID_00000067952785250577721330000007637691155855946135_);}
	.st23{clip-path:url(#SVGID_00000063598912799179903770000004248267699613221565_);}
	.st24{clip-path:url(#SVGID_00000018211093509912136180000016344239198095964849_);}
	.st25{clip-path:url(#SVGID_00000159427762186221856520000011932810021868655747_);}
	.st26{clip-path:url(#SVGID_00000046317499736623226930000010424067086986423964_);}
	.st27{clip-path:url(#SVGID_00000107581944807606948860000011672681478711356862_);}
	.st28{clip-path:url(#SVGID_00000111912536177760097130000010470565549203168909_);}
	.st29{clip-path:url(#SVGID_00000000208194784140078380000012692085214070935445_);}
	.st30{clip-path:url(#SVGID_00000062187004956315570020000013250770264403992456_);}
	.st31{clip-path:url(#SVGID_00000131325307114383800590000013258123041951494566_);}
	.st32{clip-path:url(#SVGID_00000038377425931845222540000013417130672105470623_);}
	.st33{clip-path:url(#SVGID_00000090261346029469713670000018221321780508143261_);}
	.st34{clip-path:url(#SVGID_00000159448700534688739180000005350389492980180671_);}
	.st35{clip-path:url(#SVGID_00000089557806537931607010000005838004061605951159_);}
	.st36{clip-path:url(#SVGID_00000155840865996647397930000002547552349932243890_);}
	.st37{clip-path:url(#SVGID_00000143598412452570990200000016129642994700839327_);}
	.st38{clip-path:url(#SVGID_00000158029981233577153630000008620087781976851102_);}
	.st39{clip-path:url(#SVGID_00000106853444435996090930000012875261820908689041_);}
	.st40{clip-path:url(#SVGID_00000144317080659722151510000007481279599232513974_);}
</style>
<path class="st2" d="M412,512H100C44.8,512,0,467.2,0,412V100C0,44.8,44.8,0,100,0h312c55.2,0,100,44.8,100,100v312
	C512,467.2,467.2,512,412,512z"/>
<g>
	<path class="st6" d="M444.8,212.8c-26-42.3-85.1-113.3-188.8-113.3s-162.8,71-188.8,113.3c-16.4,26.5-16.4,60,0,86.4
		c26,42.3,85.1,113.3,188.8,113.3s162.8-71,188.8-113.3C461.1,272.7,461.1,239.3,444.8,212.8z M416.2,281.7
		C393.9,318,343.4,379,256,379s-137.9-61-160.2-97.3c-9.7-15.7-9.7-35.6,0-51.4C118.1,194,168.6,133,256,133s137.9,61,160.2,97.3
		C425.9,246.1,425.9,265.9,416.2,281.7z"/>
	<path class="st6" d="M256,172.3c-46.2,0-83.7,37.5-83.7,83.7s37.5,83.7,83.7,83.7s83.7-37.5,83.7-83.7
		C339.7,209.8,302.2,172.3,256,172.3z M256,306.2c-27.7,0-50.2-22.5-50.2-50.2s22.5-50.2,50.2-50.2s50.2,22.5,50.2,50.2
		S283.7,306.2,256,306.2z"/>
</g>
</svg>
