<?xml version="1.0" encoding="utf-8"?>
<!-- Generator: Adobe Illustrator 26.5.0, SVG Export Plug-In . SVG Version: 6.00 Build 0)  -->
<svg version="1.1" id="Capa_1" xmlns="http://www.w3.org/2000/svg" xmlns:xlink="http://www.w3.org/1999/xlink" x="0px" y="0px"
	 viewBox="0 0 512 512" style="enable-background:new 0 0 512 512;" xml:space="preserve">
<style type="text/css">
	.st0{fill:#A360FF;}
	.st1{fill:#7900FF;}
	.st2{fill:#999999;}
	.st3{fill:#FFFFFF;}
</style>
<g>
	<path class="st2" d="M397,300h-10v-24.3c25.7-15.9,43.2-43.8,44.9-75.7h5.1c24.8,0,45-20.2,45-45c0-19.6-12.5-36.2-30-42.4V75
		c0-41.4-33.6-75-75-75h-80c-41.4,0-75,33.6-75,75v37.6c-17.5,6.2-30,22.9-30,42.4c0,24.8,20.2,45,45,45h5.1
		c1.7,32,19.2,59.8,44.9,75.7V300h-10c-63.4,0-115,51.6-115,115v15h-27c-24.8,0-45-20.2-45-45V270h5c8.3,0,15-6.7,15-15
		s-6.7-15-15-15h-5v-30h15c24.8,0,45-20.2,45-45V45c0-24.8-20.2-45-45-45H45C20.2,0,0,20.2,0,45v120c0,24.8,20.2,45,45,45h15v30h-5
		c-8.3,0-15,6.7-15,15s6.7,15,15,15h5v115c0,41.4,33.6,75,75,75h27v37c0,8.3,6.7,15,15,15h320c8.3,0,15-6.7,15-15v-82
		C512,351.6,460.4,300,397,300z M432,140h5c8.3,0,15,6.7,15,15s-6.7,15-15,15h-5V140z M242,170h-5c-8.3,0-15-6.7-15-15s6.7-15,15-15
		h5V170z M30,45c0-8.3,6.7-15,15-15h60c8.3,0,15,6.7,15,15v15H30V45z M45,180c-8.3,0-15-6.7-15-15V90h90v75c0,8.3-6.7,15-15,15H45z
		 M252,110V75c0-24.9,20.1-45,45-45h80c24.9,0,45,20.1,45,45v35h-0.5l-56.2-37.5c-7.5-5-17.7-2.3-21.7,5.8
		C333.9,97.7,314,110,292.3,110H252z M272,195v-55h20.3c27.6,0,52.9-12.7,69.2-34l40.5,27v62c0,35.8-29.2,65-65,65
		S272,230.8,272,195z M357,287.9V315c0,11-9,20-20,20s-20-9-20-20v-27.1c6.5,1.4,13.1,2.1,20,2.1S350.5,289.3,357,287.9z M482,482
		H192v-67c0-46.9,38.1-85,85-85h12.3c6.4,20.3,25.4,35,47.7,35s41.3-14.7,47.7-35H397c46.9,0,85,38.1,85,85V482z"/>
</g>
</svg>
