<?xml version="1.0" encoding="utf-8"?>
<!-- Generator: Adobe Illustrator 26.5.0, SVG Export Plug-In . SVG Version: 6.00 Build 0)  -->
<svg version="1.1" id="Capa_1" xmlns="http://www.w3.org/2000/svg" xmlns:xlink="http://www.w3.org/1999/xlink" x="0px" y="0px"
	 viewBox="0 0 512 512" style="enable-background:new 0 0 512 512;" xml:space="preserve">
<style type="text/css">
	.st0{fill:#CC3333;}
	.st1{fill:#6600FF;}
	.st2{fill:#339933;}
	.st3{fill:#A360FF;}
	.st4{fill:#7900FF;}
	.st5{fill:#999999;}
	.st6{fill:#FFFFFF;}
	.st7{fill:#CCCCCC;}
	.st8{fill:#666666;}
	.st9{fill:#914DFD;}
	.st10{fill:#A166FD;}
	.st11{fill:#D1B0FF;}
	.st12{fill:#E0CCFF;}
	.st13{fill:#A366FF;}
	.st14{fill:#944DFF;}
	.st15{fill:#F2F2F2;}
	.st16{clip-path:url(#SVGID_00000126319522091814374140000016872642463453320885_);}
	.st17{clip-path:url(#SVGID_00000062170982587474922280000002858676118762318256_);}
	.st18{clip-path:url(#SVGID_00000101810642372552613940000005949717257828309937_);}
	.st19{clip-path:url(#SVGID_00000139998977059295042940000000398016365303586450_);}
	.st20{clip-path:url(#SVGID_00000140720638878085082260000011296740896125749888_);}
	.st21{clip-path:url(#SVGID_00000129908914400628666990000000886996823764024208_);}
	.st22{clip-path:url(#SVGID_00000036948788474531458660000014590702286643807404_);}
	.st23{clip-path:url(#SVGID_00000136407768321203605520000010268002117493656487_);}
	.st24{clip-path:url(#SVGID_00000042702757284660503640000018211549449263779465_);}
	.st25{clip-path:url(#SVGID_00000075880608478688896360000012058743306622144916_);}
	.st26{clip-path:url(#SVGID_00000150795215069232352460000004862257209684751253_);}
	.st27{clip-path:url(#SVGID_00000002347130574069765790000017414878784694497960_);}
	.st28{clip-path:url(#SVGID_00000136397885068290819970000008165430704775722676_);}
	.st29{clip-path:url(#SVGID_00000141452881846078580940000004570069927545809299_);}
	.st30{clip-path:url(#SVGID_00000109717496195964341700000000068163400324632759_);}
	.st31{clip-path:url(#SVGID_00000170273032697277454150000013849752425129475775_);}
	.st32{clip-path:url(#SVGID_00000054971487524681989420000009339570240143930802_);}
	.st33{clip-path:url(#SVGID_00000049918321891877516190000007450098986275344037_);}
	.st34{clip-path:url(#SVGID_00000155137809340623060300000005900644941315441855_);}
	.st35{clip-path:url(#SVGID_00000119108834739015959980000013062458662099807906_);}
	.st36{clip-path:url(#SVGID_00000132767578902442811270000006886000583460457114_);}
	.st37{clip-path:url(#SVGID_00000031926599138935726970000013202342483236142244_);}
	.st38{clip-path:url(#SVGID_00000116237320328846769520000002579668465361204658_);}
	.st39{clip-path:url(#SVGID_00000121984676125102111830000011740030704709534905_);}
	.st40{clip-path:url(#SVGID_00000016045790472915867910000014893331898131014794_);}
</style>
<g>
	<path class="st6" d="M489.5,296.7L489.5,296.7l-21.3-17.5c-14.6-12-14.6-34.3,0-46.3l21.3-17.5c15.2-12.5,19-33.9,9.2-50.9
		l-42.1-72.8c-9.8-17-30.3-24.3-48.7-17.5l-25.8,9.7c-17.7,6.6-37-4.6-40.1-23.2l-4.5-27.2C334.3,14.1,317.7,0,298.1,0h-84.1
		c-19.6,0-36.2,14.1-39.5,33.4L170,60.6c-3.1,18.6-22.5,29.8-40.1,23.2L104,74.1c-18.4-6.9-38.9,0.5-48.7,17.5l-42.1,72.8
		c-9.8,17-5.9,38.4,9.2,50.9l21.3,17.5c14.6,12,14.6,34.3,0,46.3l-21.3,17.5c-15.2,12.5-19,33.9-9.2,50.9l42.1,72.8
		c9.8,17,30.3,24.3,48.7,17.5l25.8-9.7c17.7-6.6,37,4.6,40.1,23.2l4.5,27.2c3.2,19.4,19.8,33.4,39.5,33.4h84.1
		c19.6,0,36.2-14.1,39.5-33.4l4.5-27.2c3.1-18.6,22.5-29.8,40.1-23.2l25.8,9.7c18.4,6.9,38.9-0.5,48.7-17.5l42.1-72.8
		C508.5,330.6,504.7,309.2,489.5,296.7z M422,400.4l-25.8-9.7c-41.3-15.5-86.4,10.6-93.6,54l-4.5,27.2h-84.1l-4.5-27.2
		c-7.2-43.5-52.4-69.5-93.6-54L90,400.4l-42.1-72.8L69.2,310c34-28,34-80.1,0-108.1l-21.3-17.5L90,111.6l25.8,9.7
		c41.3,15.5,86.4-10.6,93.6-54l4.5-27.2h84.1l4.5,27.2c7.2,43.5,52.4,69.5,93.6,54l25.8-9.7l42.1,72.8c0,0,0,0,0,0L442.8,202
		c-34,28-34,80.1,0,108.1l21.3,17.5L422,400.4z"/>
	<path class="st6" d="M256,157.3c-54.4,0-98.7,44.3-98.7,98.7s44.3,98.7,98.7,98.7s98.7-44.3,98.7-98.7S310.4,157.3,256,157.3z
		 M256,314.7c-32.3,0-58.7-26.3-58.7-58.7s26.3-58.7,58.7-58.7s58.7,26.3,58.7,58.7S288.3,314.7,256,314.7z"/>
</g>
</svg>
