<?xml version="1.0" encoding="utf-8"?>
<!-- Generator: Adobe Illustrator 26.5.0, SVG Export Plug-In . SVG Version: 6.00 Build 0)  -->
<svg version="1.1" id="Capa_1" xmlns="http://www.w3.org/2000/svg" xmlns:xlink="http://www.w3.org/1999/xlink" x="0px" y="0px"
	 viewBox="0 0 512 512" style="enable-background:new 0 0 512 512;" xml:space="preserve">
<style type="text/css">
	.st0{fill:#CC3333;}
	.st1{fill:#6600FF;}
	.st2{fill:#339933;}
	.st3{fill:#A360FF;}
	.st4{fill:#7900FF;}
	.st5{fill:#999999;}
	.st6{fill:#FFFFFF;}
	.st7{fill:#CCCCCC;}
	.st8{fill:#666666;}
	.st9{fill:#914DFD;}
	.st10{fill:#A166FD;}
	.st11{fill:#D1B0FF;}
	.st12{fill:#E0CCFF;}
	.st13{fill:#A366FF;}
	.st14{fill:#944DFF;}
	.st15{fill:#F2F2F2;}
	.st16{clip-path:url(#SVGID_00000152253581578019125250000009622446133102992538_);}
	.st17{clip-path:url(#SVGID_00000121274461215893020810000016817279827126762147_);}
	.st18{clip-path:url(#SVGID_00000132790273474394340580000008837446716473053843_);}
	.st19{clip-path:url(#SVGID_00000052103751247192587820000013356025027672135557_);}
	.st20{clip-path:url(#SVGID_00000034086314349067736740000016841097781008760452_);}
	.st21{clip-path:url(#SVGID_00000090989766948004651810000007558601367341667467_);}
	.st22{clip-path:url(#SVGID_00000053527478636489817320000010302704201522627457_);}
	.st23{clip-path:url(#SVGID_00000020366585014251420280000004228975989225872315_);}
	.st24{clip-path:url(#SVGID_00000087399030954786084190000008986714108454395789_);}
	.st25{clip-path:url(#SVGID_00000049900391073240831120000004642144132606400642_);}
	.st26{clip-path:url(#SVGID_00000183966826573540943370000018291725647707043001_);}
	.st27{clip-path:url(#SVGID_00000001658199105896834560000001201245899018422965_);}
	.st28{clip-path:url(#SVGID_00000029744727086847742680000009935517336798180757_);}
	.st29{clip-path:url(#SVGID_00000091728122352146071050000018433691392720816513_);}
	.st30{clip-path:url(#SVGID_00000113350867634766974490000004270186366719084469_);}
	.st31{clip-path:url(#SVGID_00000136382253458350439360000005023068389027768212_);}
	.st32{clip-path:url(#SVGID_00000170972642226745250020000009752999010333698204_);}
	.st33{clip-path:url(#SVGID_00000067943510103293569450000007034672325145272985_);}
	.st34{clip-path:url(#SVGID_00000096754270459872113190000002360014329268167825_);}
	.st35{clip-path:url(#SVGID_00000147941670281780080750000014905043390304502404_);}
	.st36{clip-path:url(#SVGID_00000116225694217626519090000008183096962241045931_);}
	.st37{clip-path:url(#SVGID_00000023983292224752296560000003920750913257742236_);}
	.st38{clip-path:url(#SVGID_00000136381558686055697080000010936969889102173851_);}
	.st39{clip-path:url(#SVGID_00000071520376374789756640000000010053892086846898_);}
	.st40{clip-path:url(#SVGID_00000137831719425511101300000002988847393322475955_);}
</style>
<g>
	<path class="st5" d="M441.6,20.5H70.4C31.5,20.5,0,52,0,90.9V318c0,38.7,31.4,70.3,70.1,70.4v83.7c0,8.2,9.2,13,15.9,8.3l132.3-92
		h223.3c38.9,0,70.4-31.5,70.4-70.4V90.9C512,52,480.5,20.5,441.6,20.5z M482,318c0,22.3-18.1,40.4-40.4,40.4H208.9l-108.7,75.7
		v-75.7H70.4C48.1,358.4,30,340.3,30,318V90.9c0-22.3,18.1-40.4,40.4-40.4h371.2c22.3,0,40.4,18.1,40.4,40.4V318z"/>
	<path class="st5" d="M152,156.5H360c8.3,0,15-6.7,15-15v0c0-8.3-6.7-15-15-15H152c-8.3,0-15,6.7-15,15v0
		C137,149.8,143.8,156.5,152,156.5z"/>
	<path class="st5" d="M152,220.5H360c8.3,0,15-6.7,15-15v0c0-8.3-6.7-15-15-15H152c-8.3,0-15,6.7-15,15v0
		C137,213.8,143.8,220.5,152,220.5z"/>
	<path class="st5" d="M152,284.5H360c8.3,0,15-6.7,15-15v0c0-8.3-6.7-15-15-15H152c-8.3,0-15,6.7-15,15v0
		C137,277.8,143.8,284.5,152,284.5z"/>
</g>
</svg>
