<?xml version="1.0" encoding="utf-8"?>
<!-- Generator: Adobe Illustrator 26.5.0, SVG Export Plug-In . SVG Version: 6.00 Build 0)  -->
<svg version="1.1" id="Capa_1" xmlns="http://www.w3.org/2000/svg" xmlns:xlink="http://www.w3.org/1999/xlink" x="0px" y="0px"
	 viewBox="0 0 512 512" style="enable-background:new 0 0 512 512;" xml:space="preserve">
<style type="text/css">
	.st0{fill:#CC3333;}
	.st1{fill:#6600FF;}
	.st2{fill:#339933;}
	.st3{fill:#A360FF;}
	.st4{fill:#7900FF;}
	.st5{fill:#999999;}
	.st6{fill:#FFFFFF;}
	.st7{fill:#CCCCCC;}
	.st8{fill:#666666;}
	.st9{fill:#914DFD;}
	.st10{fill:#A166FD;}
	.st11{fill:#D1B0FF;}
	.st12{fill:#E0CCFF;}
	.st13{fill:#A366FF;}
	.st14{fill:#944DFF;}
	.st15{fill:#F2F2F2;}
	.st16{clip-path:url(#SVGID_00000105394271162661966450000014359552867244327340_);}
	.st17{clip-path:url(#SVGID_00000040561808753178974760000006447205265260349611_);}
	.st18{clip-path:url(#SVGID_00000155145663780027590640000014763223103262762911_);}
	.st19{clip-path:url(#SVGID_00000096041831291120628160000014587480971344191676_);}
	.st20{clip-path:url(#SVGID_00000088829704096763431740000003107596514987520952_);}
	.st21{clip-path:url(#SVGID_00000042723121935124213830000009171874155524299654_);}
	.st22{clip-path:url(#SVGID_00000115488689592618394900000001649796941017241277_);}
	.st23{clip-path:url(#SVGID_00000134213247474572582910000010757246232288981435_);}
	.st24{clip-path:url(#SVGID_00000119837812675610169660000007665497530927413426_);}
	.st25{clip-path:url(#SVGID_00000108296571556989396660000009386023954756765604_);}
	.st26{clip-path:url(#SVGID_00000149374134169480108960000000413934566679966120_);}
	.st27{clip-path:url(#SVGID_00000101812903315509387840000007247757843348192656_);}
	.st28{clip-path:url(#SVGID_00000165192872498613674830000008870465699553957288_);}
	.st29{clip-path:url(#SVGID_00000078044285184794927970000009892257930804403080_);}
	.st30{clip-path:url(#SVGID_00000139256633165767378200000003163745823745082511_);}
	.st31{clip-path:url(#SVGID_00000108294737097481706060000010823195819811038612_);}
	.st32{clip-path:url(#SVGID_00000041996897782185603080000009083459174187501697_);}
	.st33{clip-path:url(#SVGID_00000018228904601538625100000003065629748962662540_);}
	.st34{clip-path:url(#SVGID_00000010990445061416637620000013338990163135966365_);}
	.st35{clip-path:url(#SVGID_00000050665412684884976960000004385091512872647333_);}
	.st36{clip-path:url(#SVGID_00000005263167180526382440000008547012482032726716_);}
	.st37{clip-path:url(#SVGID_00000062181986473159391450000000749567722253303960_);}
	.st38{clip-path:url(#SVGID_00000008118791953829692930000005876759971823826057_);}
	.st39{clip-path:url(#SVGID_00000067937536173116166130000001793597694316574872_);}
	.st40{clip-path:url(#SVGID_00000026866027354000363440000016662257791002881213_);}
</style>
<g>
	<path class="st7" d="M220.8,72.1c-17-17.2-46.3-8.8-51.7,14.7l-36.6,142.3l-85.9,85c-5.9,5.8-5.9,15.3-0.1,21.2l7.9,8l-32.1,31.8
		c-5.9,5.8-5.9,15.3-0.1,21.2l73.2,73.9c5.8,5.9,15.3,5.9,21.2,0.1l32.1-31.8l7.9,8c5.8,5.9,15.3,5.9,21.2,0.1l11.8-11.7l71.7,72.5
		c5.8,5.9,15.3,5.9,21.2,0.1l44-43.5c5.9-5.8,5.9-15.3,0.1-21.2l-71.7-72.5l8.8-8.8l142.6-35.1c23.6-5.2,32.2-34.4,15.2-51.5
		L220.8,72.1z M106.2,438.5l-52.1-52.6l21.4-21.2l52.1,52.6L106.2,438.5z M167.4,414.9l-89-90l67.5-66.9l89,90
		C235,348,168.2,414.1,167.4,414.9z M294.8,453.4l-22.6,22.4L211,414l22.6-22.4L294.8,453.4z M400,297.3
		c-0.4,0.1-138.7,34.1-139.1,34.3c-1.4-1.5-96.6-97.6-98.2-99.2c0.1-0.4,35.6-138.4,35.7-138.8c0.2-0.6,0.7-0.7,1.1-0.3l200.9,202.9
		C400.7,296.5,400.6,297.1,400,297.3z"/>
	<path class="st7" d="M447,49.6C416.1,18.1,374.9,0.5,330.8,0c-8.3-0.1-15.1,6.6-15.2,14.8c-0.1,8.3,6.6,15.1,14.8,15.2
		c36.1,0.4,69.8,14.8,95.1,40.6c25.2,25.8,38.9,59.8,38.6,95.9c-0.1,8.3,6.6,15.1,14.8,15.2c0.1,0,0.1,0,0.2,0
		c8.2,0,14.9-6.6,15-14.8C494.5,122.7,477.8,81.1,447,49.6z"/>
	<path class="st7" d="M330.1,60.1c-0.1,0-0.1,0-0.2,0c-8.2,0-14.9,6.6-15,14.8c-0.1,8.3,6.6,15.1,14.8,15.2
		c20,0.2,38.7,8.2,52.7,22.5c14,14.3,21.6,33.2,21.4,53.2c-0.1,8.3,6.6,15.1,14.8,15.2c0.1,0,0.1,0,0.2,0c8.2,0,14.9-6.6,15-14.8
		c0.3-28-10.3-54.5-30-74.5C384.4,71.6,358.2,60.4,330.1,60.1z"/>
</g>
</svg>
