<?xml version="1.0" encoding="utf-8"?>
<!-- Generator: Adobe Illustrator 26.5.0, SVG Export Plug-In . SVG Version: 6.00 Build 0)  -->
<svg version="1.1" id="Capa_1" xmlns="http://www.w3.org/2000/svg" xmlns:xlink="http://www.w3.org/1999/xlink" x="0px" y="0px"
	 viewBox="0 0 512 512" style="enable-background:new 0 0 512 512;" xml:space="preserve">
<style type="text/css">
	.st0{fill:#CC3333;}
	.st1{fill:#6600FF;}
	.st2{fill:#339933;}
	.st3{fill:#A360FF;}
	.st4{fill:#7900FF;}
	.st5{fill:#999999;}
	.st6{fill:#FFFFFF;}
	.st7{fill:#CCCCCC;}
	.st8{fill:#666666;}
	.st9{fill:#914DFD;}
	.st10{fill:#A166FD;}
	.st11{fill:#D1B0FF;}
	.st12{fill:#E0CCFF;}
	.st13{fill:#A366FF;}
	.st14{fill:#944DFF;}
	.st15{fill:#F2F2F2;}
	.st16{clip-path:url(#SVGID_00000173841785182938508420000009717671042813036969_);}
	.st17{clip-path:url(#SVGID_00000029014401056445499840000005683995124920846231_);}
	.st18{clip-path:url(#SVGID_00000112608926612995259710000009547068870169938330_);}
	.st19{clip-path:url(#SVGID_00000111185431458996777360000006769953225094186915_);}
	.st20{clip-path:url(#SVGID_00000059288269095407600390000000709334918568090794_);}
	.st21{clip-path:url(#SVGID_00000177447128183306171680000006313844705682562994_);}
	.st22{clip-path:url(#SVGID_00000155133632139680886400000011423120999621740700_);}
	.st23{clip-path:url(#SVGID_00000031181454105367040810000011634792285012578742_);}
	.st24{clip-path:url(#SVGID_00000010290005129108321360000004293359720366781598_);}
	.st25{clip-path:url(#SVGID_00000067955884866089902930000017607493593273176208_);}
	.st26{clip-path:url(#SVGID_00000084532077708366661960000001464071888798889877_);}
	.st27{clip-path:url(#SVGID_00000018237900908614130140000011638506555163349910_);}
	.st28{clip-path:url(#SVGID_00000142862445382743483850000012847274281267595189_);}
	.st29{clip-path:url(#SVGID_00000026885732824779254940000013086446578118024121_);}
	.st30{clip-path:url(#SVGID_00000010297883688960180480000002634740388640006533_);}
	.st31{clip-path:url(#SVGID_00000131341283833797655780000011619587578316811657_);}
	.st32{clip-path:url(#SVGID_00000101076144345453546930000007871731298767387320_);}
	.st33{clip-path:url(#SVGID_00000144340138460515907080000005599534759181500857_);}
	.st34{clip-path:url(#SVGID_00000121999431135890720040000001059761086065978784_);}
	.st35{clip-path:url(#SVGID_00000036234920539636647880000008664422948789703299_);}
	.st36{clip-path:url(#SVGID_00000089537215733510304910000011648001584288102786_);}
	.st37{clip-path:url(#SVGID_00000029740867485769570970000006951149029901473450_);}
	.st38{clip-path:url(#SVGID_00000173879025207042159840000013599716844895557792_);}
	.st39{clip-path:url(#SVGID_00000124139575398019666170000001842073052324366256_);}
	.st40{clip-path:url(#SVGID_00000065765582269142631190000008492093934602077073_);}
</style>
<path class="st5" d="M497,61h-75V46c0-8.3-6.7-15-15-15c-8.3,0-15,6.7-15,15v15h-76V46c0-8.3-6.7-15-15-15c-8.3,0-15,6.7-15,15v15
	h-75V46c0-8.3-6.7-15-15-15s-15,6.7-15,15v15h-76c-8.3,0-15,6.7-15,15v90c0,110.5-45.9,195.6-84.6,228.5c-4.9,4-6.7,10.7-4.5,16.6
	C3,417,8.7,421,15,421h75v45c0,8.3,6.7,15,15,15h392c8.3,0,15-6.7,15-15V76C512,67.7,505.3,61,497,61z M49.1,391
	c46.1-58.8,68.1-135.3,70.6-210h362c-3.4,95.2-39.9,170-80.6,210H49.1z M482,451H120v-30h287c3.5,0,6.9-1.2,9.6-3.5
	c18-15,46-50.8,65.4-96.6V451z M482,151H120V91h61v15c0,8.3,6.7,15,15,15s15-6.7,15-15V91h75v15c0,8.3,6.7,15,15,15
	c8.3,0,15-6.7,15-15V91h76v15c0,8.3,6.7,15,15,15c8.3,0,15-6.7,15-15V91h60V151z"/>
</svg>
