<?xml version="1.0" encoding="utf-8"?>
<!-- Generator: Adobe Illustrator 26.5.0, SVG Export Plug-In . SVG Version: 6.00 Build 0)  -->
<svg version="1.1" id="Capa_1" xmlns="http://www.w3.org/2000/svg" xmlns:xlink="http://www.w3.org/1999/xlink" x="0px" y="0px"
	 viewBox="0 0 512 512" style="enable-background:new 0 0 512 512;" xml:space="preserve">
<style type="text/css">
	.st0{fill:#CC3333;}
	.st1{fill:#6600FF;}
	.st2{fill:#339933;}
	.st3{fill:#A360FF;}
	.st4{fill:#7900FF;}
	.st5{fill:#999999;}
	.st6{fill:#FFFFFF;}
	.st7{fill:#CCCCCC;}
	.st8{fill:#666666;}
	.st9{fill:#914DFD;}
	.st10{fill:#A166FD;}
	.st11{fill:#D1B0FF;}
	.st12{fill:#E0CCFF;}
	.st13{fill:#A366FF;}
	.st14{fill:#944DFF;}
	.st15{fill:#F2F2F2;}
	.st16{clip-path:url(#SVGID_00000169523581440157866060000010187524077392336058_);}
	.st17{clip-path:url(#SVGID_00000118357766970481118860000011031844621880036751_);}
	.st18{clip-path:url(#SVGID_00000059299606259235733610000009446494228126453634_);}
	.st19{clip-path:url(#SVGID_00000121966700763835167800000005985013281854903425_);}
	.st20{clip-path:url(#SVGID_00000003093055084073064580000010125021359247188878_);}
	.st21{clip-path:url(#SVGID_00000053543688579454689850000015485328085447328906_);}
	.st22{clip-path:url(#SVGID_00000054977055529838539620000011780828929262234527_);}
	.st23{clip-path:url(#SVGID_00000168090237317424797790000004239601090928650407_);}
	.st24{clip-path:url(#SVGID_00000105419782935645666770000008922235103179868600_);}
	.st25{clip-path:url(#SVGID_00000018925039661874342880000003563416233769502135_);}
	.st26{clip-path:url(#SVGID_00000131340982988092218590000003650597805970381753_);}
	.st27{clip-path:url(#SVGID_00000000925487720351326010000011397501778266249146_);}
	.st28{clip-path:url(#SVGID_00000163752164244158190130000013599956545380875673_);}
	.st29{clip-path:url(#SVGID_00000164502583206958079910000006319063353602327443_);}
	.st30{clip-path:url(#SVGID_00000125594793942203852300000006098872979192276636_);}
	.st31{clip-path:url(#SVGID_00000081650226453103924530000014217953152384471442_);}
	.st32{clip-path:url(#SVGID_00000118374668716874814520000007976322939995144332_);}
	.st33{clip-path:url(#SVGID_00000179623770175167614540000003094609255240023177_);}
	.st34{clip-path:url(#SVGID_00000034069185884024616370000001503553553843848383_);}
	.st35{clip-path:url(#SVGID_00000073702503807114595390000018407468833661878927_);}
	.st36{clip-path:url(#SVGID_00000179616391838855032030000010510675684812996745_);}
	.st37{clip-path:url(#SVGID_00000155137415390191709040000009503019556061878940_);}
	.st38{clip-path:url(#SVGID_00000180342296622044633470000017918727818533765273_);}
	.st39{clip-path:url(#SVGID_00000006676590035050158970000007392388082878111397_);}
	.st40{clip-path:url(#SVGID_00000059270216857997607660000012270819697159267721_);}
</style>
<g>
	<path class="st5" d="M472.5,69.6c-3.8-0.9-7.8-1.4-11.7-1.4H114.9l-13-55.1C100.1,5.5,93.3,0,85.3,0H17.1C7.6,0,0,7.7,0,17.1
		s7.6,17.1,17.1,17.1h54.7l60.3,256.4c-28.1,2.3-49,27-46.7,55.1c2.2,26.6,24.4,47,51.1,46.9h290.1c9.4,0,17.1-7.6,17.1-17.1
		s-7.6-17.1-17.1-17.1H136.5c-9.4,0-17.1-7.6-17.1-17.1c0-9.4,7.6-17.1,17.1-17.1h288.1c23.8,0.1,44.4-16.3,49.8-39.5l36.2-153.6
		C517.1,103.7,500,76.1,472.5,69.6z M477.4,123.4L441.2,277c-1.8,7.7-8.7,13.2-16.6,13.2H167.1l-44.2-187.7h337.9
		c9.6,0.2,17.2,8.1,17,17.7C477.8,121.2,477.6,122.3,477.4,123.4z"/>
	<path class="st5" d="M375.4,409.6c-28.3,0-51.2,22.9-51.2,51.2s22.9,51.2,51.2,51.2c28.3,0,51.2-22.9,51.2-51.2
		S403.7,409.6,375.4,409.6z M375.4,477.9c-9.4,0-17.1-7.6-17.1-17.1s7.6-17.1,17.1-17.1c9.4,0,17.1,7.6,17.1,17.1
		S384.9,477.9,375.4,477.9z"/>
	<path class="st5" d="M187.7,409.6c-28.3,0-51.2,22.9-51.2,51.2s22.9,51.2,51.2,51.2c28.3,0,51.2-22.9,51.2-51.2
		S216,409.6,187.7,409.6z M187.7,477.9c-9.4,0-17.1-7.6-17.1-17.1s7.6-17.1,17.1-17.1c9.4,0,17.1,7.6,17.1,17.1
		S197.2,477.9,187.7,477.9z"/>
</g>
</svg>
