<?xml version="1.0" encoding="utf-8"?>
<!-- Generator: Adobe Illustrator 26.5.0, SVG Export Plug-In . SVG Version: 6.00 Build 0)  -->
<svg version="1.1" id="Capa_1" xmlns="http://www.w3.org/2000/svg" xmlns:xlink="http://www.w3.org/1999/xlink" x="0px" y="0px"
	 viewBox="0 0 512 512" style="enable-background:new 0 0 512 512;" xml:space="preserve">
<style type="text/css">
	.st0{fill:#A360FF;}
	.st1{fill:#7900FF;}
	.st2{fill:#999999;}
	.st3{fill:#FFFFFF;}
</style>
<g>
	<path class="st2" d="M502,0H98c-5.5,0-10,4.5-10,10v44H54c-5.5,0-10,4.5-10,10v54H10c-5.5,0-10,4.5-10,10v330c0,29.8,24.2,54,54,54
		h404c29.8,0,54-24.2,54-54V10C512,4.5,507.5,0,502,0z M492,458c0,18.7-15.3,34-34,34H95.9c7.5-9.3,12.1-21.1,12.1-34V323
		c0-5.5-4.5-10-10-10c-5.5,0-10,4.5-10,10v135c0,18.7-15.3,34-34,34s-34-15.3-34-34V138h24v310c0,5.5,4.5,10,10,10
		c5.5,0,10-4.5,10-10V74h24v159c0,5.5,4.5,10,10,10c5.5,0,10-4.5,10-10V20h384V458z"/>
	<path class="st2" d="M146,158h308c5.5,0,10-4.5,10-10V76c0-5.5-4.5-10-10-10H146c-5.5,0-10,4.5-10,10v72
		C136,153.5,140.5,158,146,158z M156,86h288v52H156V86z"/>
	<path class="st2" d="M146,398h154c5.5,0,10-4.5,10-10V196c0-5.5-4.5-10-10-10H146c-5.5,0-10,4.5-10,10v192
		C136,393.5,140.5,398,146,398z M156,206h134v172H156V206z"/>
	<path class="st2" d="M454,186H348c-5.5,0-10,4.5-10,10s4.5,10,10,10h106c5.5,0,10-4.5,10-10S459.5,186,454,186z"/>
	<path class="st2" d="M454,234H348c-5.5,0-10,4.5-10,10s4.5,10,10,10h106c5.5,0,10-4.5,10-10S459.5,234,454,234z"/>
	<path class="st2" d="M454,282H348c-5.5,0-10,4.5-10,10c0,5.5,4.5,10,10,10h106c5.5,0,10-4.5,10-10C464,286.5,459.5,282,454,282z"/>
	<path class="st2" d="M454,330H348c-5.5,0-10,4.5-10,10c0,5.5,4.5,10,10,10h106c5.5,0,10-4.5,10-10C464,334.5,459.5,330,454,330z"/>
	<path class="st2" d="M454,378H348c-5.5,0-10,4.5-10,10c0,5.5,4.5,10,10,10h106c5.5,0,10-4.5,10-10C464,382.5,459.5,378,454,378z"/>
	<path class="st2" d="M146,446h308c5.5,0,10-4.5,10-10c0-5.5-4.5-10-10-10H146c-5.5,0-10,4.5-10,10C136,441.5,140.5,446,146,446z"/>
	<path class="st2" d="M98.5,268c-2.6,0-5.2,1.1-7.1,2.9c-1.9,1.9-2.9,4.4-2.9,7.1c0,2.6,1.1,5.2,2.9,7.1c1.9,1.9,4.4,2.9,7.1,2.9
		s5.2-1.1,7.1-2.9c1.9-1.9,2.9-4.4,2.9-7.1s-1.1-5.2-2.9-7.1C103.7,269.1,101.1,268,98.5,268z"/>
</g>
</svg>
