<?xml version="1.0" encoding="utf-8"?>
<!-- Generator: Adobe Illustrator 26.5.0, SVG Export Plug-In . SVG Version: 6.00 Build 0)  -->
<svg version="1.1" id="Capa_1" xmlns="http://www.w3.org/2000/svg" xmlns:xlink="http://www.w3.org/1999/xlink" x="0px" y="0px"
	 viewBox="0 0 512 512" style="enable-background:new 0 0 512 512;" xml:space="preserve">
<style type="text/css">
	.st0{fill:#CC3333;}
	.st1{fill:#6600FF;}
	.st2{fill:#339933;}
	.st3{fill:#A360FF;}
	.st4{fill:#7900FF;}
	.st5{fill:#999999;}
	.st6{fill:#FFFFFF;}
	.st7{fill:#CCCCCC;}
	.st8{fill:#666666;}
	.st9{fill:#914DFD;}
	.st10{fill:#A166FD;}
	.st11{fill:#D1B0FF;}
	.st12{fill:#E0CCFF;}
	.st13{fill:#A366FF;}
	.st14{fill:#944DFF;}
	.st15{fill:#F2F2F2;}
	.st16{clip-path:url(#SVGID_00000139295231894612450850000003647651194120222130_);}
	.st17{clip-path:url(#SVGID_00000033333673514132685640000017239572443918806418_);}
	.st18{clip-path:url(#SVGID_00000061463577104992726760000009475341745882909615_);}
	.st19{clip-path:url(#SVGID_00000065073678489071730030000011588936055253115839_);}
	.st20{clip-path:url(#SVGID_00000020399789280957311990000012276145001907778457_);}
	.st21{clip-path:url(#SVGID_00000107590407112938026440000016984156426088732296_);}
	.st22{clip-path:url(#SVGID_00000172433872329455466250000005400212685912890543_);}
	.st23{clip-path:url(#SVGID_00000083061632804643514130000013576418916948850360_);}
	.st24{clip-path:url(#SVGID_00000046337740655016354150000013101641056168955038_);}
	.st25{clip-path:url(#SVGID_00000052826987666263501120000016561692213971920047_);}
	.st26{clip-path:url(#SVGID_00000150091172767948236430000016756701929105440698_);}
	.st27{clip-path:url(#SVGID_00000048501304327821409650000018157393540971372679_);}
	.st28{clip-path:url(#SVGID_00000001636342089592481320000010090342983154084270_);}
	.st29{clip-path:url(#SVGID_00000139277242342754983410000016553476395170762429_);}
	.st30{clip-path:url(#SVGID_00000152956490298898422480000006271296209694489518_);}
	.st31{clip-path:url(#SVGID_00000020388479809081980630000007001792960513812121_);}
	.st32{clip-path:url(#SVGID_00000116221145305631131760000002019647943686937996_);}
	.st33{clip-path:url(#SVGID_00000088821847695550674070000004012788641295283878_);}
	.st34{clip-path:url(#SVGID_00000151524802851677743450000007766681213835035825_);}
	.st35{clip-path:url(#SVGID_00000175291785807462462150000008945379017262485690_);}
	.st36{clip-path:url(#SVGID_00000059290752016351303600000004902782351583993003_);}
	.st37{clip-path:url(#SVGID_00000085227459620152419010000013583656509487819922_);}
	.st38{clip-path:url(#SVGID_00000165933869495847673690000002228133867119468472_);}
	.st39{clip-path:url(#SVGID_00000005243880709606497590000006055608350215200921_);}
	.st40{clip-path:url(#SVGID_00000149380102199000310620000015679744834273345159_);}
</style>
<path class="st6" d="M485.1,8.5c-14-9.3-29.8-11.1-43.3-4.9c-23.1,10.6-48.1,25-74.6,40.3c-52.5,30.3-111.9,64.6-172.7,77.5h-87.2
	c-55.5,0-100.5,45-100.5,100.5s45,100.5,100.5,100.5h3.9c1.1,35.6,8.4,69.9,21.4,100.1c15.2,35.3,37.8,64,65.4,83.2
	c5.7,4,12.5,6.2,19.4,6.2c4.4,0,8.8-0.9,12.9-2.5c10.8-4.2,18.6-13.7,20.8-25.1l7-35.4c2.4-11.8-1.6-24-10.6-32.1
	c-20.3-18.4-33.2-52.2-35.3-90.9c73.1,16.7,136.2,56.9,197.4,95.9c9.9,6.3,20.1,12.8,30.1,19.1c5.5,3.4,11.8,5.2,18.3,5.2
	c8.7,0,17.9-3,26.9-9c12.8-8.5,20.1-21.9,20.1-36.8V45.3C505.2,30.4,497.9,17,485.1,8.5L485.1,8.5z M38.8,221.9
	c0-37.8,30.7-68.5,68.5-68.5h72.8v137h-72.8C69.5,290.4,38.9,259.8,38.8,221.9z M226.2,440.7c0.7,0.5,0.9,1.3,0.7,2.1l-7,35.4
	c-0.2,1.2-1.4,2-2.6,1.7c-0.3-0.1-0.6-0.2-0.8-0.4c-43.5-30.3-70.8-89.5-73.1-157.1h36.9C181.7,372.2,198.4,415.6,226.2,440.7
	L226.2,440.7z M473.2,400.4c0,4.2-1.9,7.5-5.8,10.1c-4.8,3.2-9.2,4.2-10.6,3.3c-9.9-6.1-20-12.6-29.9-18.9
	c-65.5-41.7-133.2-84.8-214.7-101.7v-143c61.6-15.4,119.6-48.8,171.1-78.6c25.8-14.9,50.1-28.9,71.9-38.9c4.6-2.1,10.1,1,12.3,2.4
	c3.9,2.6,5.8,5.9,5.8,10.1L473.2,400.4z"/>
</svg>
