<?xml version="1.0" encoding="utf-8"?>
<!-- Generator: Adobe Illustrator 26.5.0, SVG Export Plug-In . SVG Version: 6.00 Build 0)  -->
<svg version="1.1" id="Capa_1" xmlns="http://www.w3.org/2000/svg" xmlns:xlink="http://www.w3.org/1999/xlink" x="0px" y="0px"
	 viewBox="0 0 512 512" style="enable-background:new 0 0 512 512;" xml:space="preserve">
<style type="text/css">
	.st0{fill:#CC3333;}
	.st1{fill:#6600FF;}
	.st2{fill:#339933;}
	.st3{fill:#A360FF;}
	.st4{fill:#7900FF;}
	.st5{fill:#999999;}
	.st6{fill:#FFFFFF;}
	.st7{fill:#CCCCCC;}
	.st8{fill:#666666;}
	.st9{fill:#914DFD;}
	.st10{fill:#A166FD;}
	.st11{fill:#D1B0FF;}
	.st12{fill:#E0CCFF;}
	.st13{fill:#A366FF;}
	.st14{fill:#944DFF;}
	.st15{fill:#F2F2F2;}
	.st16{clip-path:url(#SVGID_00000176011825483973413500000017286068112690904497_);}
	.st17{clip-path:url(#SVGID_00000168830129829326018130000007061005362296243331_);}
	.st18{clip-path:url(#SVGID_00000107566315760879601520000011262008125179960973_);}
	.st19{clip-path:url(#SVGID_00000174603068416125566220000001268756860788929177_);}
	.st20{clip-path:url(#SVGID_00000023984582295965221750000006873810703434380725_);}
	.st21{clip-path:url(#SVGID_00000028318198169947613330000002807913610210097825_);}
	.st22{clip-path:url(#SVGID_00000098183132788581175490000003144804293156573881_);}
	.st23{clip-path:url(#SVGID_00000096047405850250000560000009697442172124632735_);}
	.st24{clip-path:url(#SVGID_00000072982021613717029000000015804054869332144785_);}
	.st25{clip-path:url(#SVGID_00000063628568967036884800000005426495907681237673_);}
	.st26{clip-path:url(#SVGID_00000006676853223229743730000003847766313094251394_);}
	.st27{clip-path:url(#SVGID_00000083810723898046178360000010141332108621874066_);}
	.st28{clip-path:url(#SVGID_00000065055640855065104660000018072074676504423319_);}
	.st29{clip-path:url(#SVGID_00000060722437494289978710000002624331659324061586_);}
	.st30{clip-path:url(#SVGID_00000036225727859437109640000001474534648642115971_);}
	.st31{clip-path:url(#SVGID_00000059280597150596585910000000771766579925214880_);}
	.st32{clip-path:url(#SVGID_00000026158836170333676550000001072728000875402681_);}
	.st33{clip-path:url(#SVGID_00000029039463223618189460000003756051520174433415_);}
	.st34{clip-path:url(#SVGID_00000147179658593522972610000001754419828946662569_);}
	.st35{clip-path:url(#SVGID_00000077323289047210932580000003385841518828851117_);}
	.st36{clip-path:url(#SVGID_00000164475506795663723320000007666813055482684579_);}
	.st37{clip-path:url(#SVGID_00000183947573919898516510000003362265317253344408_);}
	.st38{clip-path:url(#SVGID_00000143577278201690916410000014709055772728921516_);}
	.st39{clip-path:url(#SVGID_00000074400804884954592450000002993403623804467627_);}
	.st40{clip-path:url(#SVGID_00000065072728737786785440000016578199036195655590_);}
</style>
<g>
	<path class="st5" d="M507.2,153l-26.8-53.7c-2.5-5.1-7.7-8.3-13.4-8.3c-5.7,0-10.9,3.2-13.4,8.3L426.8,153
		c-3.1,6.2-4.8,13.2-4.8,20.1V436c0,24.8,20.2,45,45,45s45-20.2,45-45V173.1C512,166.1,510.4,159.2,507.2,153z M482,436
		c0,8.3-6.7,15-15,15c-8.3,0-15-6.7-15-15v-15h30V436z M482,391h-30V211h30V391z M482,181h-30v-7.9c0-2.3,0.5-4.6,1.6-6.7l13.4-26.8
		l13.4,26.8c1,2.1,1.6,4.4,1.6,6.7V181z"/>
	<path class="st5" d="M345,60h-47.6c-6.2-17.5-22.9-30-42.4-30h-17.6C231.2,12.5,214.6,0,195,0c-19.6,0-36.2,12.5-42.4,30H135
		c-19.6,0-36.2,12.5-42.4,30H45C20.2,60,0,80.2,0,105v362c0,24.8,20.2,45,45,45h300c24.8,0,45-20.2,45-45V105
		C390,80.2,369.8,60,345,60z M120,75c0-8.3,6.7-15,15-15h30c8.3,0,15-6.7,15-15c0-8.3,6.7-15,15-15c8.3,0,15,6.7,15,15
		c0,8.3,6.7,15,15,15h30c8.3,0,15,6.7,15,15v15H120V75z M360,467c0,8.3-6.7,15-15,15H45c-8.3,0-15-6.7-15-15V105c0-8.3,6.7-15,15-15
		h45v15c0,8.3,6.7,15,15,15h180c8.3,0,15-6.7,15-15V90h45c8.3,0,15,6.7,15,15V467z"/>
	<path class="st5" d="M154.4,155.4L105,204.8l-19.4-19.4c-5.9-5.9-15.4-5.9-21.2,0c-5.9,5.9-5.9,15.4,0,21.2l30,30
		c5.9,5.9,15.4,5.9,21.2,0l60-60c5.9-5.9,5.9-15.4,0-21.2C169.7,149.5,160.3,149.5,154.4,155.4z"/>
	<path class="st5" d="M154.4,260.4L105,309.8l-19.4-19.4c-5.9-5.9-15.4-5.9-21.2,0c-5.9,5.9-5.9,15.4,0,21.2l30,30
		c5.9,5.9,15.4,5.9,21.2,0l60-60c5.9-5.9,5.9-15.4,0-21.2C169.7,254.5,160.3,254.5,154.4,260.4z"/>
	<path class="st5" d="M154.4,365.4L105,414.8l-19.4-19.4c-5.9-5.9-15.4-5.9-21.2,0c-5.9,5.9-5.9,15.4,0,21.2l30,30
		c5.9,5.9,15.4,5.9,21.2,0l60-60c5.9-5.9,5.9-15.4,0-21.2C169.7,359.5,160.3,359.5,154.4,365.4z"/>
	<path class="st5" d="M315,391h-90c-8.3,0-15,6.7-15,15s6.7,15,15,15h90c8.3,0,15-6.7,15-15S323.3,391,315,391z"/>
	<path class="st5" d="M315,181h-90c-8.3,0-15,6.7-15,15s6.7,15,15,15h90c8.3,0,15-6.7,15-15S323.3,181,315,181z"/>
	<path class="st5" d="M315,286h-90c-8.3,0-15,6.7-15,15s6.7,15,15,15h90c8.3,0,15-6.7,15-15S323.3,286,315,286z"/>
</g>
</svg>
