<?xml version="1.0" encoding="utf-8"?>
<!-- Generator: Adobe Illustrator 26.5.0, SVG Export Plug-In . SVG Version: 6.00 Build 0)  -->
<svg version="1.1" id="Capa_1" xmlns="http://www.w3.org/2000/svg" xmlns:xlink="http://www.w3.org/1999/xlink" x="0px" y="0px"
	 viewBox="0 0 512 512" style="enable-background:new 0 0 512 512;" xml:space="preserve">
<style type="text/css">
	.st0{fill:#CC3333;}
	.st1{fill:#6600FF;}
	.st2{fill:#339933;}
	.st3{fill:#A360FF;}
	.st4{fill:#7900FF;}
	.st5{fill:#999999;}
	.st6{fill:#FFFFFF;}
	.st7{fill:#CCCCCC;}
	.st8{fill:#666666;}
	.st9{fill:#914DFD;}
	.st10{fill:#A166FD;}
	.st11{fill:#D1B0FF;}
	.st12{fill:#E0CCFF;}
	.st13{fill:#A366FF;}
	.st14{fill:#944DFF;}
	.st15{fill:#F2F2F2;}
	.st16{clip-path:url(#SVGID_00000064329137936338226960000009437225119111259306_);}
	.st17{clip-path:url(#SVGID_00000146474092973491300930000013512488553375731335_);}
	.st18{clip-path:url(#SVGID_00000132773320324573825560000001122579225620854673_);}
	.st19{clip-path:url(#SVGID_00000181047442159596906640000004749016925791197094_);}
	.st20{clip-path:url(#SVGID_00000016050107411686467250000009756411984576660892_);}
	.st21{clip-path:url(#SVGID_00000027589385018410207230000002885515175368990348_);}
	.st22{clip-path:url(#SVGID_00000021813847141583764040000011146259572216054161_);}
	.st23{clip-path:url(#SVGID_00000001624885776165485970000006002724646964779454_);}
	.st24{clip-path:url(#SVGID_00000000922352042270820990000016035626660772064938_);}
	.st25{clip-path:url(#SVGID_00000172408045267854830130000002234248706865093294_);}
	.st26{clip-path:url(#SVGID_00000153688456756790461830000016327354793385883823_);}
	.st27{clip-path:url(#SVGID_00000096767572006266009350000003856366953181665410_);}
	.st28{clip-path:url(#SVGID_00000115514087077674336460000001278674516869339277_);}
	.st29{clip-path:url(#SVGID_00000182517114636283252510000009524895727509693580_);}
	.st30{clip-path:url(#SVGID_00000005261999444120274480000017578565938482429584_);}
	.st31{clip-path:url(#SVGID_00000039839850721475606820000001682419060028538011_);}
	.st32{clip-path:url(#SVGID_00000135669236783671387130000001294256043969983393_);}
	.st33{clip-path:url(#SVGID_00000050660294698911040850000015933181888910347432_);}
	.st34{clip-path:url(#SVGID_00000110460331080114299650000005235893514239614857_);}
	.st35{clip-path:url(#SVGID_00000118380055507887623490000015286503635770812585_);}
	.st36{clip-path:url(#SVGID_00000065780531872254788410000008973744170872675235_);}
	.st37{clip-path:url(#SVGID_00000054945451364739269500000016919773559986909879_);}
	.st38{clip-path:url(#SVGID_00000034768446900210735260000013129031491187790468_);}
	.st39{clip-path:url(#SVGID_00000062162095715662577730000018272547665003006645_);}
	.st40{clip-path:url(#SVGID_00000039114276058043954570000005299223762646487201_);}
</style>
<g>
	<path class="st7" d="M489.5,296.7L489.5,296.7l-21.3-17.5c-14.6-12-14.6-34.3,0-46.3l21.3-17.5c15.2-12.5,19-33.9,9.2-50.9
		l-42.1-72.8c-9.8-17-30.3-24.3-48.7-17.5l-25.8,9.7c-17.7,6.6-37-4.6-40.1-23.2l-4.5-27.2C334.3,14.1,317.7,0,298.1,0h-84.1
		c-19.6,0-36.2,14.1-39.5,33.4L170,60.6c-3.1,18.6-22.5,29.8-40.1,23.2L104,74.1c-18.4-6.9-38.9,0.5-48.7,17.5l-42.1,72.8
		c-9.8,17-5.9,38.4,9.2,50.9l21.3,17.5c14.6,12,14.6,34.3,0,46.3l-21.3,17.5c-15.2,12.5-19,33.9-9.2,50.9l42.1,72.8
		c9.8,17,30.3,24.3,48.7,17.5l25.8-9.7c17.7-6.6,37,4.6,40.1,23.2l4.5,27.2c3.2,19.4,19.8,33.4,39.5,33.4h84.1
		c19.6,0,36.2-14.1,39.5-33.4l4.5-27.2c3.1-18.6,22.5-29.8,40.1-23.2l25.8,9.7c18.4,6.9,38.9-0.5,48.7-17.5l42.1-72.8
		C508.5,330.6,504.7,309.2,489.5,296.7z M422,400.4l-25.8-9.7c-41.3-15.5-86.4,10.6-93.6,54l-4.5,27.2h-84.1l-4.5-27.2
		c-7.2-43.5-52.4-69.5-93.6-54L90,400.4l-42.1-72.8L69.2,310c34-28,34-80.1,0-108.1l-21.3-17.5L90,111.6l25.8,9.7
		c41.3,15.5,86.4-10.6,93.6-54l4.5-27.2h84.1l4.5,27.2c7.2,43.5,52.4,69.5,93.6,54l25.8-9.7l42.1,72.8c0,0,0,0,0,0L442.8,202
		c-34,28-34,80.1,0,108.1l21.3,17.5L422,400.4z"/>
	<path class="st7" d="M256,157.3c-54.4,0-98.7,44.3-98.7,98.7s44.3,98.7,98.7,98.7s98.7-44.3,98.7-98.7S310.4,157.3,256,157.3z
		 M256,314.7c-32.3,0-58.7-26.3-58.7-58.7s26.3-58.7,58.7-58.7s58.7,26.3,58.7,58.7S288.3,314.7,256,314.7z"/>
</g>
</svg>
