<?xml version="1.0" encoding="utf-8"?>
<!-- Generator: Adobe Illustrator 26.5.0, SVG Export Plug-In . SVG Version: 6.00 Build 0)  -->
<svg version="1.1" id="Capa_1" xmlns="http://www.w3.org/2000/svg" xmlns:xlink="http://www.w3.org/1999/xlink" x="0px" y="0px"
	 viewBox="0 0 512 512" style="enable-background:new 0 0 512 512;" xml:space="preserve">
<style type="text/css">
	.st0{fill:#A360FF;}
	.st1{fill:#7900FF;}
	.st2{fill:#999999;}
	.st3{fill:#FFFFFF;}
</style>
<path class="st2" d="M497,61h-75V46c0-8.3-6.7-15-15-15c-8.3,0-15,6.7-15,15v15h-76V46c0-8.3-6.7-15-15-15c-8.3,0-15,6.7-15,15v15
	h-75V46c0-8.3-6.7-15-15-15s-15,6.7-15,15v15h-76c-8.3,0-15,6.7-15,15v90c0,110.5-45.9,195.6-84.6,228.5c-4.9,4-6.7,10.7-4.5,16.6
	C3,417,8.7,421,15,421h75v45c0,8.3,6.7,15,15,15h392c8.3,0,15-6.7,15-15V76C512,67.7,505.3,61,497,61z M49.1,391
	c46.1-58.8,68.1-135.3,70.6-210h362c-3.4,95.2-39.9,170-80.6,210H49.1z M482,451H120v-30h287c3.5,0,6.9-1.2,9.6-3.5
	c18-15,46-50.8,65.4-96.6V451z M482,151H120V91h61v15c0,8.3,6.7,15,15,15s15-6.7,15-15V91h75v15c0,8.3,6.7,15,15,15
	c8.3,0,15-6.7,15-15V91h76v15c0,8.3,6.7,15,15,15c8.3,0,15-6.7,15-15V91h60V151z"/>
</svg>
