<?xml version="1.0" encoding="utf-8"?>
<!-- Generator: Adobe Illustrator 26.5.0, SVG Export Plug-In . SVG Version: 6.00 Build 0)  -->
<svg version="1.1" id="Capa_1" xmlns="http://www.w3.org/2000/svg" xmlns:xlink="http://www.w3.org/1999/xlink" x="0px" y="0px"
	 viewBox="0 0 512 512" style="enable-background:new 0 0 512 512;" xml:space="preserve">
<style type="text/css">
	.st0{fill:#CC3333;}
	.st1{fill:#6600FF;}
	.st2{fill:#339933;}
	.st3{fill:#A360FF;}
	.st4{fill:#7900FF;}
	.st5{fill:#999999;}
	.st6{fill:#FFFFFF;}
	.st7{fill:#CCCCCC;}
	.st8{fill:#666666;}
	.st9{fill:#914DFD;}
	.st10{fill:#A166FD;}
	.st11{fill:#D1B0FF;}
	.st12{fill:#E0CCFF;}
	.st13{fill:#A366FF;}
	.st14{fill:#944DFF;}
	.st15{fill:#F2F2F2;}
	.st16{clip-path:url(#SVGID_00000132061531475845569540000004851996111219874453_);}
	.st17{clip-path:url(#SVGID_00000093856063748251696140000001299624534129477049_);}
	.st18{clip-path:url(#SVGID_00000109012637016421718850000008593869770068286336_);}
	.st19{clip-path:url(#SVGID_00000109711341759939015550000002817975370666798729_);}
	.st20{clip-path:url(#SVGID_00000035521897118980445170000002141797377181765001_);}
	.st21{clip-path:url(#SVGID_00000174565585551436746510000017747881588537493686_);}
	.st22{clip-path:url(#SVGID_00000109709594380794527150000007175581229920847284_);}
	.st23{clip-path:url(#SVGID_00000176759872678751532270000004352681156375772305_);}
	.st24{clip-path:url(#SVGID_00000037658961436686687260000009262840497323665027_);}
	.st25{clip-path:url(#SVGID_00000068670561377626774970000010905325311171270061_);}
	.st26{clip-path:url(#SVGID_00000147921993259172010820000007423298487481179320_);}
	.st27{clip-path:url(#SVGID_00000029042766148378278140000015108173281810643853_);}
	.st28{clip-path:url(#SVGID_00000102519128849159217530000009728372525116903580_);}
	.st29{clip-path:url(#SVGID_00000013908510043307067280000012449772296668968362_);}
	.st30{clip-path:url(#SVGID_00000029007715929285192800000013526154598384273802_);}
	.st31{clip-path:url(#SVGID_00000023980295223674535860000005882430616303180420_);}
	.st32{clip-path:url(#SVGID_00000010298332943553970120000004876377204486336682_);}
	.st33{clip-path:url(#SVGID_00000135655506433938831460000011606299297927069612_);}
	.st34{clip-path:url(#SVGID_00000003813580098248259070000000007446082519609755_);}
	.st35{clip-path:url(#SVGID_00000170986891736871587970000018377886991532032949_);}
	.st36{clip-path:url(#SVGID_00000151543458113320268090000009659134574700140199_);}
	.st37{clip-path:url(#SVGID_00000024702393376323754870000003919784413266656703_);}
	.st38{clip-path:url(#SVGID_00000086687531301168706380000010266892944855183546_);}
	.st39{clip-path:url(#SVGID_00000148656053729040814290000009588674644631871113_);}
	.st40{clip-path:url(#SVGID_00000096744423387102083620000001863533741270233218_);}
</style>
<g>
	<path class="st1" d="M372.7,306.8c-6.3-3.2-37.5-18.5-43.3-20.6c-5.8-2.1-10-3.2-14.3,3.2c-4.2,6.3-16.4,20.6-20.1,24.9
		c-3.7,4.2-7.4,4.8-13.7,1.6c-6.3-3.2-26.8-9.9-51-31.5c-18.8-16.8-31.6-37.6-35.3-43.9c-3.7-6.4-0.4-9.8,2.8-12.9
		c2.9-2.8,6.3-7.4,9.5-11.1c3.2-3.7,4.2-6.3,6.4-10.6c2.1-4.2,1.1-7.9-0.5-11.1c-1.6-3.2-14.3-34.4-19.5-47.1
		c-5.1-12.4-10.4-10.7-14.3-10.9c-3.7-0.2-7.9-0.2-12.2-0.2c-4.2,0-11.1,1.6-16.9,7.9c-5.8,6.4-22.2,21.7-22.2,52.9
		c0,31.2,22.7,61.4,25.9,65.6s44.7,68.3,108.3,95.7c15.1,6.5,26.9,10.4,36.1,13.4c15.2,4.8,29,4.1,39.9,2.5
		c12.2-1.8,37.5-15.3,42.8-30.1c5.3-14.8,5.3-27.5,3.7-30.1C383.3,311.6,379.1,310,372.7,306.8z"/>
	<path class="st1" d="M436.6,74.4C388.6,26.5,324.9,0,257.1,0C117.2,0,3.4,113.8,3.4,253.7c0,44.7,11.7,88.4,33.9,126.8L1.2,512
		l134.5-35.3c37.1,20.2,78.8,30.9,121.2,30.9h0.1c139.8,0,253.7-113.8,253.7-253.7C510.8,186.1,484.4,122.3,436.6,74.4z
		 M257.1,464.7L257.1,464.7c-37.9,0-75-10.2-107.4-29.4l-7.7-4.6l-79.8,20.9l21.3-77.8l-5-8c-21.1-33.6-32.3-72.4-32.2-112.2
		c0-116.3,94.7-210.9,211-210.9c56.3,0,109.3,22,149.1,61.8c39.8,39.9,61.7,92.8,61.7,149.2C467.9,370.2,373.3,464.7,257.1,464.7z"
		/>
</g>
</svg>
