<?xml version="1.0" encoding="utf-8"?>
<!-- Generator: Adobe Illustrator 26.5.0, SVG Export Plug-In . SVG Version: 6.00 Build 0)  -->
<svg version="1.1" id="Capa_1" xmlns="http://www.w3.org/2000/svg" xmlns:xlink="http://www.w3.org/1999/xlink" x="0px" y="0px"
	 viewBox="0 0 512 512" style="enable-background:new 0 0 512 512;" xml:space="preserve">
<style type="text/css">
	.st0{fill:#A360FF;}
	.st1{fill:#7900FF;}
	.st2{fill:#999999;}
	.st3{fill:#FFFFFF;}
</style>
<path class="st2" d="M410.7,512h-85.3c-8.8,0-16-7.2-16-16V357.3c0-2.9-2.4-5.3-5.3-5.3h-96c-2.9,0-5.3,2.4-5.3,5.3V496
	c0,8.8-7.2,16-16,16h-85.3C80.8,512,64,495.3,64,474.7V277.3H26.7C12,277.3,0,265.4,0,250.7c0-7.1,2.9-14,7.9-19l237-227.2
	c6.2-5.9,16-5.9,22.1,0l236.8,227c5.2,5.3,8.1,12.2,8.1,19.2c0,14.7-12,26.7-26.7,26.7H448v197.3C448,495.3,431.2,512,410.7,512z
	 M341.3,480h69.3c2.9,0,5.3-2.4,5.3-5.3V261.3c0-8.8,7.2-16,16-16h40.1L256,38.2L39.9,245.3H80c8.8,0,16,7.2,16,16v213.3
	c0,2.9,2.4,5.3,5.3,5.3h69.3V357.3c0-20.6,16.7-37.3,37.3-37.3h96c20.6,0,37.3,16.7,37.3,37.3V480z"/>
</svg>
