<?xml version="1.0" encoding="utf-8"?>
<!-- Generator: Adobe Illustrator 26.5.0, SVG Export Plug-In . SVG Version: 6.00 Build 0)  -->
<svg version="1.1" id="Capa_1" xmlns="http://www.w3.org/2000/svg" xmlns:xlink="http://www.w3.org/1999/xlink" x="0px" y="0px"
	 viewBox="0 0 512 512" style="enable-background:new 0 0 512 512;" xml:space="preserve">
<style type="text/css">
	.st0{fill:#CC3333;}
	.st1{fill:#6600FF;}
	.st2{fill:#339933;}
	.st3{fill:#A360FF;}
	.st4{fill:#7900FF;}
	.st5{fill:#999999;}
	.st6{fill:#FFFFFF;}
	.st7{fill:#CCCCCC;}
	.st8{fill:#666666;}
	.st9{fill:#914DFD;}
	.st10{fill:#A166FD;}
	.st11{fill:#D1B0FF;}
	.st12{fill:#E0CCFF;}
	.st13{fill:#A366FF;}
	.st14{fill:#944DFF;}
	.st15{fill:#F2F2F2;}
	.st16{clip-path:url(#SVGID_00000034808318703182582450000010942060247397017761_);}
	.st17{clip-path:url(#SVGID_00000106852919217931763200000016006021928041478787_);}
	.st18{clip-path:url(#SVGID_00000058573158759241539150000004812530676411033990_);}
	.st19{clip-path:url(#SVGID_00000165227340252720556100000001453296872655739568_);}
	.st20{clip-path:url(#SVGID_00000026151848655590369580000004237592188398947242_);}
	.st21{clip-path:url(#SVGID_00000085216966413249142230000008713035939717520301_);}
	.st22{clip-path:url(#SVGID_00000114064483462660537920000000475973759818793632_);}
	.st23{clip-path:url(#SVGID_00000061433285187559292630000002859040094078143151_);}
	.st24{clip-path:url(#SVGID_00000118369409157791422760000014604984635894885508_);}
	.st25{clip-path:url(#SVGID_00000147194849375943249570000009842464254562573475_);}
	.st26{clip-path:url(#SVGID_00000020366067967898288660000010648454834729553539_);}
	.st27{clip-path:url(#SVGID_00000143578190486702407300000012205577908827315330_);}
	.st28{clip-path:url(#SVGID_00000115493239161640833980000010294057844939471242_);}
	.st29{clip-path:url(#SVGID_00000124136526672356329290000011108103492078295962_);}
	.st30{clip-path:url(#SVGID_00000168086619241646856610000011441466200218259859_);}
	.st31{clip-path:url(#SVGID_00000040532397171441506990000002645003892714805916_);}
	.st32{clip-path:url(#SVGID_00000029737182648655783870000006042091969435168946_);}
	.st33{clip-path:url(#SVGID_00000145780287571869082800000001425144106631406984_);}
	.st34{clip-path:url(#SVGID_00000179635580107063438330000009768108188331772825_);}
	.st35{clip-path:url(#SVGID_00000142164013178969793050000000579795065904518845_);}
	.st36{clip-path:url(#SVGID_00000151529481808048945640000000349922981334807449_);}
	.st37{clip-path:url(#SVGID_00000074440177434322539130000014114261339421847971_);}
	.st38{clip-path:url(#SVGID_00000103955307425571078140000000932964089602711447_);}
	.st39{clip-path:url(#SVGID_00000176014515935790041400000015784870233285111739_);}
	.st40{clip-path:url(#SVGID_00000016035047029536150650000018228447006554653592_);}
</style>
<g>
	<path class="st5" d="M502,0H98c-5.5,0-10,4.5-10,10v44H54c-5.5,0-10,4.5-10,10v54H10c-5.5,0-10,4.5-10,10v330c0,29.8,24.2,54,54,54
		h404c29.8,0,54-24.2,54-54V10C512,4.5,507.5,0,502,0z M492,458c0,18.7-15.3,34-34,34H95.9c7.5-9.3,12.1-21.1,12.1-34V323
		c0-5.5-4.5-10-10-10c-5.5,0-10,4.5-10,10v135c0,18.7-15.3,34-34,34s-34-15.3-34-34V138h24v310c0,5.5,4.5,10,10,10
		c5.5,0,10-4.5,10-10V74h24v159c0,5.5,4.5,10,10,10c5.5,0,10-4.5,10-10V20h384V458z"/>
	<path class="st5" d="M146,158h308c5.5,0,10-4.5,10-10V76c0-5.5-4.5-10-10-10H146c-5.5,0-10,4.5-10,10v72
		C136,153.5,140.5,158,146,158z M156,86h288v52H156V86z"/>
	<path class="st5" d="M146,398h154c5.5,0,10-4.5,10-10V196c0-5.5-4.5-10-10-10H146c-5.5,0-10,4.5-10,10v192
		C136,393.5,140.5,398,146,398z M156,206h134v172H156V206z"/>
	<path class="st5" d="M454,186H348c-5.5,0-10,4.5-10,10s4.5,10,10,10h106c5.5,0,10-4.5,10-10S459.5,186,454,186z"/>
	<path class="st5" d="M454,234H348c-5.5,0-10,4.5-10,10s4.5,10,10,10h106c5.5,0,10-4.5,10-10S459.5,234,454,234z"/>
	<path class="st5" d="M454,282H348c-5.5,0-10,4.5-10,10c0,5.5,4.5,10,10,10h106c5.5,0,10-4.5,10-10C464,286.5,459.5,282,454,282z"/>
	<path class="st5" d="M454,330H348c-5.5,0-10,4.5-10,10c0,5.5,4.5,10,10,10h106c5.5,0,10-4.5,10-10C464,334.5,459.5,330,454,330z"/>
	<path class="st5" d="M454,378H348c-5.5,0-10,4.5-10,10c0,5.5,4.5,10,10,10h106c5.5,0,10-4.5,10-10C464,382.5,459.5,378,454,378z"/>
	<path class="st5" d="M146,446h308c5.5,0,10-4.5,10-10c0-5.5-4.5-10-10-10H146c-5.5,0-10,4.5-10,10C136,441.5,140.5,446,146,446z"/>
	<path class="st5" d="M98.5,268c-2.6,0-5.2,1.1-7.1,2.9c-1.9,1.9-2.9,4.4-2.9,7.1c0,2.6,1.1,5.2,2.9,7.1c1.9,1.9,4.4,2.9,7.1,2.9
		s5.2-1.1,7.1-2.9c1.9-1.9,2.9-4.4,2.9-7.1s-1.1-5.2-2.9-7.1C103.7,269.1,101.1,268,98.5,268z"/>
</g>
</svg>
