<?xml version="1.0" encoding="utf-8"?>
<!-- Generator: Adobe Illustrator 26.5.0, SVG Export Plug-In . SVG Version: 6.00 Build 0)  -->
<svg version="1.1" id="Capa_1" xmlns="http://www.w3.org/2000/svg" xmlns:xlink="http://www.w3.org/1999/xlink" x="0px" y="0px"
	 viewBox="0 0 512 512" style="enable-background:new 0 0 512 512;" xml:space="preserve">
<style type="text/css">
	.st0{fill:#CC3333;}
	.st1{fill:#6600FF;}
	.st2{fill:#339933;}
	.st3{fill:#A360FF;}
	.st4{fill:#7900FF;}
	.st5{fill:#999999;}
	.st6{fill:#FFFFFF;}
	.st7{fill:#CCCCCC;}
	.st8{fill:#666666;}
	.st9{fill:#914DFD;}
	.st10{fill:#A166FD;}
	.st11{fill:#D1B0FF;}
	.st12{fill:#E0CCFF;}
	.st13{fill:#A366FF;}
	.st14{fill:#944DFF;}
	.st15{fill:#F2F2F2;}
	.st16{clip-path:url(#SVGID_00000048497924342954986870000000979329514358865825_);}
	.st17{clip-path:url(#SVGID_00000022533303939690732520000011591500229265594273_);}
	.st18{clip-path:url(#SVGID_00000081637428590005279870000008643263096208307332_);}
	.st19{clip-path:url(#SVGID_00000060014273843582872210000003875249785161824428_);}
	.st20{clip-path:url(#SVGID_00000136398440898892763940000008483947165690422181_);}
	.st21{clip-path:url(#SVGID_00000076577940792150717600000013064829006779034807_);}
	.st22{clip-path:url(#SVGID_00000183942284371739337980000001748901015718656163_);}
	.st23{clip-path:url(#SVGID_00000158016253206095692160000016954353534012108691_);}
	.st24{clip-path:url(#SVGID_00000065789686882421246660000008599128338347136131_);}
	.st25{clip-path:url(#SVGID_00000078024588347651308110000011741625132461224620_);}
	.st26{clip-path:url(#SVGID_00000110444927371039246370000004278518631615442839_);}
	.st27{clip-path:url(#SVGID_00000145756901417937767950000004526443091500134075_);}
	.st28{clip-path:url(#SVGID_00000118358143595055100080000005609143939492033455_);}
	.st29{clip-path:url(#SVGID_00000139276528743641554550000003131570347895967383_);}
	.st30{clip-path:url(#SVGID_00000127755406831461355750000007581969782258075533_);}
	.st31{clip-path:url(#SVGID_00000006670822801547835120000005157566759168718998_);}
	.st32{clip-path:url(#SVGID_00000088106203625131852350000016529210149881361315_);}
	.st33{clip-path:url(#SVGID_00000007402601102506867990000016646895364191922332_);}
	.st34{clip-path:url(#SVGID_00000170254404362859974070000017924897545668896956_);}
	.st35{clip-path:url(#SVGID_00000170238162651197406580000000724701323916795782_);}
	.st36{clip-path:url(#SVGID_00000094586452568098220000000009648164247231484331_);}
	.st37{clip-path:url(#SVGID_00000105393795588431754850000016020040803797481633_);}
	.st38{clip-path:url(#SVGID_00000124130377810657137550000008315548061608293302_);}
	.st39{clip-path:url(#SVGID_00000072997558122812820910000016347323508041671080_);}
	.st40{clip-path:url(#SVGID_00000075154148846842634680000002823216751984620222_);}
</style>
<g>
	<path class="st6" d="M472.5,69.6c-3.8-0.9-7.8-1.4-11.7-1.4H114.9l-13-55.1C100.1,5.5,93.3,0,85.3,0H17.1C7.6,0,0,7.7,0,17.1
		s7.6,17.1,17.1,17.1h54.7l60.3,256.4c-28.1,2.3-49,27-46.7,55.1c2.2,26.6,24.4,47,51.1,46.9h290.1c9.4,0,17.1-7.6,17.1-17.1
		s-7.6-17.1-17.1-17.1H136.5c-9.4,0-17.1-7.6-17.1-17.1c0-9.4,7.6-17.1,17.1-17.1h288.1c23.8,0.1,44.4-16.3,49.8-39.5l36.2-153.6
		C517.1,103.7,500,76.1,472.5,69.6z M477.4,123.4L441.2,277c-1.8,7.7-8.7,13.2-16.6,13.2H167.1l-44.2-187.7h337.9
		c9.6,0.2,17.2,8.1,17,17.7C477.8,121.2,477.6,122.3,477.4,123.4z"/>
	<path class="st6" d="M375.4,409.6c-28.3,0-51.2,22.9-51.2,51.2s22.9,51.2,51.2,51.2c28.3,0,51.2-22.9,51.2-51.2
		S403.7,409.6,375.4,409.6z M375.4,477.9c-9.4,0-17.1-7.6-17.1-17.1s7.6-17.1,17.1-17.1c9.4,0,17.1,7.6,17.1,17.1
		S384.9,477.9,375.4,477.9z"/>
	<path class="st6" d="M187.7,409.6c-28.3,0-51.2,22.9-51.2,51.2s22.9,51.2,51.2,51.2c28.3,0,51.2-22.9,51.2-51.2
		S216,409.6,187.7,409.6z M187.7,477.9c-9.4,0-17.1-7.6-17.1-17.1s7.6-17.1,17.1-17.1c9.4,0,17.1,7.6,17.1,17.1
		S197.2,477.9,187.7,477.9z"/>
</g>
</svg>
