<?xml version="1.0" encoding="utf-8"?>
<!-- Generator: Adobe Illustrator 26.5.0, SVG Export Plug-In . SVG Version: 6.00 Build 0)  -->
<svg version="1.1" id="Capa_1" xmlns="http://www.w3.org/2000/svg" xmlns:xlink="http://www.w3.org/1999/xlink" x="0px" y="0px"
	 viewBox="0 0 512 512" style="enable-background:new 0 0 512 512;" xml:space="preserve">
<style type="text/css">
	.st0{fill:#CC3333;}
	.st1{fill:#6600FF;}
	.st2{fill:#339933;}
	.st3{fill:#A360FF;}
	.st4{fill:#7900FF;}
	.st5{fill:#999999;}
	.st6{fill:#FFFFFF;}
	.st7{fill:#CCCCCC;}
	.st8{fill:#666666;}
	.st9{fill:#914DFD;}
	.st10{fill:#A166FD;}
	.st11{fill:#D1B0FF;}
	.st12{fill:#E0CCFF;}
	.st13{fill:#A366FF;}
	.st14{fill:#944DFF;}
	.st15{fill:#F2F2F2;}
	.st16{clip-path:url(#SVGID_00000001625533710986374340000005394668601636137869_);}
	.st17{clip-path:url(#SVGID_00000107546188867369674110000000900082956281909174_);}
	.st18{clip-path:url(#SVGID_00000180331961133319745140000012092837809342410646_);}
	.st19{clip-path:url(#SVGID_00000083771625014829949990000000888527408310054286_);}
	.st20{clip-path:url(#SVGID_00000163071025472428548270000002219706851452566203_);}
	.st21{clip-path:url(#SVGID_00000183931885943293174560000017135880269969122971_);}
	.st22{clip-path:url(#SVGID_00000010285185302810179390000014613469361859690389_);}
	.st23{clip-path:url(#SVGID_00000121983412857591122510000018056426888137699766_);}
	.st24{clip-path:url(#SVGID_00000153667547594515178120000013484647615859963267_);}
	.st25{clip-path:url(#SVGID_00000106115081665146321260000005064789446787390629_);}
	.st26{clip-path:url(#SVGID_00000026132101358314250170000016460662894626695826_);}
	.st27{clip-path:url(#SVGID_00000122691718909965505100000001666828601791397256_);}
	.st28{clip-path:url(#SVGID_00000051357115952366805390000003556025319537669805_);}
	.st29{clip-path:url(#SVGID_00000132077084631702652410000009133194102027897771_);}
	.st30{clip-path:url(#SVGID_00000027574112163825942880000007913539209415166623_);}
	.st31{clip-path:url(#SVGID_00000181051445774442307730000002775926294401816212_);}
	.st32{clip-path:url(#SVGID_00000124861786454231882640000007917480563539996829_);}
	.st33{clip-path:url(#SVGID_00000142149695468532203000000002142891144663240320_);}
	.st34{clip-path:url(#SVGID_00000116932640402712770700000005631233494409988015_);}
	.st35{clip-path:url(#SVGID_00000127006542007097715360000009757708087493616035_);}
	.st36{clip-path:url(#SVGID_00000034775682131103420290000016699718494111215519_);}
	.st37{clip-path:url(#SVGID_00000116938560563862637060000009202801851552331677_);}
	.st38{clip-path:url(#SVGID_00000121250422924678900410000001034010140565446059_);}
	.st39{clip-path:url(#SVGID_00000009557715807914893230000008280675072348342961_);}
	.st40{clip-path:url(#SVGID_00000081642590075917908290000005223617174916967298_);}
</style>
<path class="st5" d="M485.1,8.5c-14-9.3-29.8-11.1-43.3-4.9c-23.1,10.6-48.1,25-74.6,40.3c-52.5,30.3-111.9,64.6-172.7,77.5h-87.2
	c-55.5,0-100.5,45-100.5,100.5s45,100.5,100.5,100.5h3.9c1.1,35.6,8.4,69.9,21.4,100.1c15.2,35.3,37.8,64,65.4,83.2
	c5.7,4,12.5,6.2,19.4,6.2c4.4,0,8.8-0.9,12.9-2.5c10.8-4.2,18.6-13.7,20.8-25.1l7-35.4c2.4-11.8-1.6-24-10.6-32.1
	c-20.3-18.4-33.2-52.2-35.3-90.9c73.1,16.7,136.2,56.9,197.4,95.9c9.9,6.3,20.1,12.8,30.1,19.1c5.5,3.4,11.8,5.2,18.3,5.2
	c8.7,0,17.9-3,26.9-9c12.8-8.5,20.1-21.9,20.1-36.8V45.3C505.2,30.4,497.9,17,485.1,8.5L485.1,8.5z M38.8,221.9
	c0-37.8,30.7-68.5,68.5-68.5h72.8v137h-72.8C69.5,290.4,38.9,259.8,38.8,221.9z M226.2,440.7c0.7,0.5,0.9,1.3,0.7,2.1l-7,35.4
	c-0.2,1.2-1.4,2-2.6,1.7c-0.3-0.1-0.6-0.2-0.8-0.4c-43.5-30.3-70.8-89.5-73.1-157.1h36.9C181.7,372.2,198.4,415.6,226.2,440.7
	L226.2,440.7z M473.2,400.4c0,4.2-1.9,7.5-5.8,10.1c-4.8,3.2-9.2,4.2-10.6,3.3c-9.9-6.1-20-12.6-29.9-18.9
	c-65.5-41.7-133.2-84.8-214.7-101.7v-143c61.6-15.4,119.6-48.8,171.1-78.6c25.8-14.9,50.1-28.9,71.9-38.9c4.6-2.1,10.1,1,12.3,2.4
	c3.9,2.6,5.8,5.9,5.8,10.1L473.2,400.4z"/>
</svg>
