<?xml version="1.0" encoding="utf-8"?>
<!-- Generator: Adobe Illustrator 26.5.0, SVG Export Plug-In . SVG Version: 6.00 Build 0)  -->
<svg version="1.1" id="Capa_1" xmlns="http://www.w3.org/2000/svg" xmlns:xlink="http://www.w3.org/1999/xlink" x="0px" y="0px"
	 viewBox="0 0 512 512" style="enable-background:new 0 0 512 512;" xml:space="preserve">
<style type="text/css">
	.st0{fill:#A360FF;}
	.st1{fill:#7900FF;}
	.st2{fill:#999999;}
	.st3{fill:#FFFFFF;}
</style>
<g>
	<path class="st2" d="M441.6,20.5H70.4C31.5,20.5,0,52,0,90.9V318c0,38.7,31.4,70.3,70.1,70.4v83.7c0,8.2,9.2,13,15.9,8.3l132.3-92
		h223.3c38.9,0,70.4-31.5,70.4-70.4V90.9C512,52,480.5,20.5,441.6,20.5z M482,318c0,22.3-18.1,40.4-40.4,40.4H208.9l-108.7,75.7
		v-75.7H70.4C48.1,358.4,30,340.3,30,318V90.9c0-22.3,18.1-40.4,40.4-40.4h371.2c22.3,0,40.4,18.1,40.4,40.4V318z"/>
	<path class="st2" d="M152,156.5H360c8.3,0,15-6.7,15-15v0c0-8.3-6.7-15-15-15H152c-8.3,0-15,6.7-15,15v0
		C137,149.8,143.8,156.5,152,156.5z"/>
	<path class="st2" d="M152,220.5H360c8.3,0,15-6.7,15-15v0c0-8.3-6.7-15-15-15H152c-8.3,0-15,6.7-15,15v0
		C137,213.8,143.8,220.5,152,220.5z"/>
	<path class="st2" d="M152,284.5H360c8.3,0,15-6.7,15-15v0c0-8.3-6.7-15-15-15H152c-8.3,0-15,6.7-15,15v0
		C137,277.8,143.8,284.5,152,284.5z"/>
</g>
</svg>
