<?xml version="1.0" encoding="utf-8"?>
<!-- Generator: Adobe Illustrator 26.5.0, SVG Export Plug-In . SVG Version: 6.00 Build 0)  -->
<svg version="1.1" id="Capa_1" xmlns="http://www.w3.org/2000/svg" xmlns:xlink="http://www.w3.org/1999/xlink" x="0px" y="0px"
	 viewBox="0 0 512 512" style="enable-background:new 0 0 512 512;" xml:space="preserve">
<style type="text/css">
	.st0{fill:#CC3333;}
	.st1{fill:#6600FF;}
	.st2{fill:#339933;}
	.st3{fill:#A360FF;}
	.st4{fill:#7900FF;}
	.st5{fill:#999999;}
	.st6{fill:#FFFFFF;}
	.st7{fill:#CCCCCC;}
	.st8{fill:#666666;}
	.st9{fill:#914DFD;}
	.st10{fill:#A166FD;}
	.st11{fill:#D1B0FF;}
	.st12{fill:#E0CCFF;}
	.st13{fill:#A366FF;}
	.st14{fill:#944DFF;}
	.st15{fill:#F2F2F2;}
	.st16{clip-path:url(#SVGID_00000155864768325646056040000010283403253811355037_);}
	.st17{clip-path:url(#SVGID_00000114038801355880650380000008715479234546539930_);}
	.st18{clip-path:url(#SVGID_00000033369564359359298380000005268301793292284329_);}
	.st19{clip-path:url(#SVGID_00000136385783170276949650000017927823494184667795_);}
	.st20{clip-path:url(#SVGID_00000139984013689055263090000008470403654105742223_);}
	.st21{clip-path:url(#SVGID_00000000222853870279351900000005793137810897247115_);}
	.st22{clip-path:url(#SVGID_00000044161948658073178880000000305222707013048982_);}
	.st23{clip-path:url(#SVGID_00000078728712616508215260000003994877055228422062_);}
	.st24{clip-path:url(#SVGID_00000118385572405461337510000003354837660076069028_);}
	.st25{clip-path:url(#SVGID_00000060008053449020358870000011042568715924640662_);}
	.st26{clip-path:url(#SVGID_00000131332246752364606300000009639532242511561615_);}
	.st27{clip-path:url(#SVGID_00000169521669837946530960000010981110436863352748_);}
	.st28{clip-path:url(#SVGID_00000016784406662556971980000016053513085346818214_);}
	.st29{clip-path:url(#SVGID_00000125562854416514992020000013640048326187700101_);}
	.st30{clip-path:url(#SVGID_00000064323093688651591340000003159731183739932569_);}
	.st31{clip-path:url(#SVGID_00000111154709210003450820000005408790917243170488_);}
	.st32{clip-path:url(#SVGID_00000133496260596471030640000010516654136587645624_);}
	.st33{clip-path:url(#SVGID_00000021112211965109440080000002400038314582722489_);}
	.st34{clip-path:url(#SVGID_00000078006712406058601790000004571657577042889871_);}
	.st35{clip-path:url(#SVGID_00000064327828457802114410000009519864449083346075_);}
	.st36{clip-path:url(#SVGID_00000027576479652107284800000014291521196509937062_);}
	.st37{clip-path:url(#SVGID_00000181779566186045921420000007290935137054336189_);}
	.st38{clip-path:url(#SVGID_00000082365349035729786000000004508234127773953983_);}
	.st39{clip-path:url(#SVGID_00000082328167456390941440000017904857458804935325_);}
	.st40{clip-path:url(#SVGID_00000056400515740634333540000011212638772051463599_);}
</style>
<g>
	<path class="st5" d="M397,300h-10v-24.3c25.7-15.9,43.2-43.8,44.9-75.7h5.1c24.8,0,45-20.2,45-45c0-19.6-12.5-36.2-30-42.4V75
		c0-41.4-33.6-75-75-75h-80c-41.4,0-75,33.6-75,75v37.6c-17.5,6.2-30,22.9-30,42.4c0,24.8,20.2,45,45,45h5.1
		c1.7,32,19.2,59.8,44.9,75.7V300h-10c-63.4,0-115,51.6-115,115v15h-27c-24.8,0-45-20.2-45-45V270h5c8.3,0,15-6.7,15-15
		s-6.7-15-15-15h-5v-30h15c24.8,0,45-20.2,45-45V45c0-24.8-20.2-45-45-45H45C20.2,0,0,20.2,0,45v120c0,24.8,20.2,45,45,45h15v30h-5
		c-8.3,0-15,6.7-15,15s6.7,15,15,15h5v115c0,41.4,33.6,75,75,75h27v37c0,8.3,6.7,15,15,15h320c8.3,0,15-6.7,15-15v-82
		C512,351.6,460.4,300,397,300z M432,140h5c8.3,0,15,6.7,15,15s-6.7,15-15,15h-5V140z M242,170h-5c-8.3,0-15-6.7-15-15s6.7-15,15-15
		h5V170z M30,45c0-8.3,6.7-15,15-15h60c8.3,0,15,6.7,15,15v15H30V45z M45,180c-8.3,0-15-6.7-15-15V90h90v75c0,8.3-6.7,15-15,15H45z
		 M252,110V75c0-24.9,20.1-45,45-45h80c24.9,0,45,20.1,45,45v35h-0.5l-56.2-37.5c-7.5-5-17.7-2.3-21.7,5.8
		C333.9,97.7,314,110,292.3,110H252z M272,195v-55h20.3c27.6,0,52.9-12.7,69.2-34l40.5,27v62c0,35.8-29.2,65-65,65
		S272,230.8,272,195z M357,287.9V315c0,11-9,20-20,20s-20-9-20-20v-27.1c6.5,1.4,13.1,2.1,20,2.1S350.5,289.3,357,287.9z M482,482
		H192v-67c0-46.9,38.1-85,85-85h12.3c6.4,20.3,25.4,35,47.7,35s41.3-14.7,47.7-35H397c46.9,0,85,38.1,85,85V482z"/>
</g>
</svg>
