<?xml version="1.0" encoding="utf-8"?>
<!-- Generator: Adobe Illustrator 26.5.0, SVG Export Plug-In . SVG Version: 6.00 Build 0)  -->
<svg version="1.1" id="Capa_1" xmlns="http://www.w3.org/2000/svg" xmlns:xlink="http://www.w3.org/1999/xlink" x="0px" y="0px"
	 viewBox="0 0 512 512" style="enable-background:new 0 0 512 512;" xml:space="preserve">
<style type="text/css">
	.st0{fill:#CC3333;}
	.st1{fill:#6600FF;}
	.st2{fill:#339933;}
	.st3{fill:#A360FF;}
	.st4{fill:#7900FF;}
	.st5{fill:#999999;}
	.st6{fill:#FFFFFF;}
	.st7{fill:#CCCCCC;}
	.st8{fill:#666666;}
	.st9{fill:#914DFD;}
	.st10{fill:#A166FD;}
	.st11{fill:#D1B0FF;}
	.st12{fill:#E0CCFF;}
	.st13{fill:#A366FF;}
	.st14{fill:#944DFF;}
	.st15{fill:#F2F2F2;}
	.st16{clip-path:url(#SVGID_00000049902621378769811570000017067837611885013668_);}
	.st17{clip-path:url(#SVGID_00000135691248758316864920000010635341376565492667_);}
	.st18{clip-path:url(#SVGID_00000003807208003513323540000013096045386233338007_);}
	.st19{clip-path:url(#SVGID_00000108995343249893835910000006773431666292466616_);}
	.st20{clip-path:url(#SVGID_00000110461233662273108800000008850630272755317156_);}
	.st21{clip-path:url(#SVGID_00000137819581717792254320000005345003778380852124_);}
	.st22{clip-path:url(#SVGID_00000018928859756050446860000017209830927760999609_);}
	.st23{clip-path:url(#SVGID_00000021825423479535226760000012794975548535208375_);}
	.st24{clip-path:url(#SVGID_00000182518069356357324870000014487758779537644452_);}
	.st25{clip-path:url(#SVGID_00000085960142321128443370000006053276665623369652_);}
	.st26{clip-path:url(#SVGID_00000053509069037689385100000016376003635403522736_);}
	.st27{clip-path:url(#SVGID_00000049937681636356303510000013049926475059982742_);}
	.st28{clip-path:url(#SVGID_00000116221337961811207070000015109390797181976745_);}
	.st29{clip-path:url(#SVGID_00000091737542608984854940000017934480593796121015_);}
	.st30{clip-path:url(#SVGID_00000023275459344278436810000013570746897937322385_);}
	.st31{clip-path:url(#SVGID_00000038374824645443974580000002806180999701154723_);}
	.st32{clip-path:url(#SVGID_00000009552753183873000670000013964969250507209122_);}
	.st33{clip-path:url(#SVGID_00000101807048773348039620000002496158264282223253_);}
	.st34{clip-path:url(#SVGID_00000005247575205616278950000008420647123668271267_);}
	.st35{clip-path:url(#SVGID_00000085962356934421101220000000018781034743359887_);}
	.st36{clip-path:url(#SVGID_00000093883183368531952840000002199092248289802370_);}
	.st37{clip-path:url(#SVGID_00000150809791025066472270000017878888745022952086_);}
	.st38{clip-path:url(#SVGID_00000103244872721043910090000018007725061554557624_);}
	.st39{clip-path:url(#SVGID_00000080176342947444186990000001106348447462221996_);}
	.st40{clip-path:url(#SVGID_00000173140754200625822830000007823076514495416724_);}
</style>
<g>
	<path class="st6" d="M502,0H98c-5.5,0-10,4.5-10,10v44H54c-5.5,0-10,4.5-10,10v54H10c-5.5,0-10,4.5-10,10v330c0,29.8,24.2,54,54,54
		h404c29.8,0,54-24.2,54-54V10C512,4.5,507.5,0,502,0z M492,458c0,18.7-15.3,34-34,34H95.9c7.5-9.3,12.1-21.1,12.1-34V323
		c0-5.5-4.5-10-10-10c-5.5,0-10,4.5-10,10v135c0,18.7-15.3,34-34,34s-34-15.3-34-34V138h24v310c0,5.5,4.5,10,10,10
		c5.5,0,10-4.5,10-10V74h24v159c0,5.5,4.5,10,10,10c5.5,0,10-4.5,10-10V20h384V458z"/>
	<path class="st6" d="M146,158h308c5.5,0,10-4.5,10-10V76c0-5.5-4.5-10-10-10H146c-5.5,0-10,4.5-10,10v72
		C136,153.5,140.5,158,146,158z M156,86h288v52H156V86z"/>
	<path class="st6" d="M146,398h154c5.5,0,10-4.5,10-10V196c0-5.5-4.5-10-10-10H146c-5.5,0-10,4.5-10,10v192
		C136,393.5,140.5,398,146,398z M156,206h134v172H156V206z"/>
	<path class="st6" d="M454,186H348c-5.5,0-10,4.5-10,10s4.5,10,10,10h106c5.5,0,10-4.5,10-10S459.5,186,454,186z"/>
	<path class="st6" d="M454,234H348c-5.5,0-10,4.5-10,10s4.5,10,10,10h106c5.5,0,10-4.5,10-10S459.5,234,454,234z"/>
	<path class="st6" d="M454,282H348c-5.5,0-10,4.5-10,10c0,5.5,4.5,10,10,10h106c5.5,0,10-4.5,10-10C464,286.5,459.5,282,454,282z"/>
	<path class="st6" d="M454,330H348c-5.5,0-10,4.5-10,10c0,5.5,4.5,10,10,10h106c5.5,0,10-4.5,10-10C464,334.5,459.5,330,454,330z"/>
	<path class="st6" d="M454,378H348c-5.5,0-10,4.5-10,10c0,5.5,4.5,10,10,10h106c5.5,0,10-4.5,10-10C464,382.5,459.5,378,454,378z"/>
	<path class="st6" d="M146,446h308c5.5,0,10-4.5,10-10c0-5.5-4.5-10-10-10H146c-5.5,0-10,4.5-10,10C136,441.5,140.5,446,146,446z"/>
	<path class="st6" d="M98.5,268c-2.6,0-5.2,1.1-7.1,2.9c-1.9,1.9-2.9,4.4-2.9,7.1c0,2.6,1.1,5.2,2.9,7.1c1.9,1.9,4.4,2.9,7.1,2.9
		s5.2-1.1,7.1-2.9c1.9-1.9,2.9-4.4,2.9-7.1s-1.1-5.2-2.9-7.1C103.7,269.1,101.1,268,98.5,268z"/>
</g>
</svg>
