<?xml version="1.0" encoding="utf-8"?>
<!-- Generator: Adobe Illustrator 26.5.0, SVG Export Plug-In . SVG Version: 6.00 Build 0)  -->
<svg version="1.1" id="Capa_1" xmlns="http://www.w3.org/2000/svg" xmlns:xlink="http://www.w3.org/1999/xlink" x="0px" y="0px"
	 viewBox="0 0 512 512" style="enable-background:new 0 0 512 512;" xml:space="preserve">
<style type="text/css">
	.st0{fill:#CC3333;}
	.st1{fill:#6600FF;}
	.st2{fill:#339933;}
	.st3{fill:#A360FF;}
	.st4{fill:#7900FF;}
	.st5{fill:#999999;}
	.st6{fill:#FFFFFF;}
	.st7{fill:#CCCCCC;}
	.st8{fill:#666666;}
	.st9{fill:#914DFD;}
	.st10{fill:#A166FD;}
	.st11{fill:#D1B0FF;}
	.st12{fill:#E0CCFF;}
	.st13{fill:#A366FF;}
	.st14{fill:#944DFF;}
	.st15{fill:#F2F2F2;}
	.st16{clip-path:url(#SVGID_00000164474392650748511240000012191646156706538379_);}
	.st17{clip-path:url(#SVGID_00000168835537718322531720000009628773504743320753_);}
	.st18{clip-path:url(#SVGID_00000142882126716907857790000011871602288234571400_);}
	.st19{clip-path:url(#SVGID_00000072993141002428290230000011716069952162949005_);}
	.st20{clip-path:url(#SVGID_00000096018857148100036660000006114837105264788866_);}
	.st21{clip-path:url(#SVGID_00000068660206873462273200000014172032308906337203_);}
	.st22{clip-path:url(#SVGID_00000051372432561561931440000013221881818702540965_);}
	.st23{clip-path:url(#SVGID_00000166676208001209959270000002127676583532208551_);}
	.st24{clip-path:url(#SVGID_00000170989320530186889880000002152557110423405977_);}
	.st25{clip-path:url(#SVGID_00000083768074732405202700000017542203891629098634_);}
	.st26{clip-path:url(#SVGID_00000121268361018314433920000018362583213108659121_);}
	.st27{clip-path:url(#SVGID_00000006671292134890403900000003422997516386305924_);}
	.st28{clip-path:url(#SVGID_00000004545784445606952260000000669751408404860584_);}
	.st29{clip-path:url(#SVGID_00000018916450086864393330000004174024447175194246_);}
	.st30{clip-path:url(#SVGID_00000027583043047398257740000005844238868077189280_);}
	.st31{clip-path:url(#SVGID_00000139981956985950530870000018425153697414397102_);}
	.st32{clip-path:url(#SVGID_00000048460180361307219680000007923647145909717174_);}
	.st33{clip-path:url(#SVGID_00000152973674358695394430000016265000286625694374_);}
	.st34{clip-path:url(#SVGID_00000029754426664373807270000011543404508091859875_);}
	.st35{clip-path:url(#SVGID_00000152950271481476320380000011347521095858819736_);}
	.st36{clip-path:url(#SVGID_00000101808121722274471230000001590019246436217245_);}
	.st37{clip-path:url(#SVGID_00000157294277366296500580000014994647667823507625_);}
	.st38{clip-path:url(#SVGID_00000137101383977985721640000015536320816958137999_);}
	.st39{clip-path:url(#SVGID_00000064341455108776961640000002306004479886511789_);}
	.st40{clip-path:url(#SVGID_00000071529296146534890640000009755838997740527768_);}
</style>
<path class="st6" d="M497,61h-75V46c0-8.3-6.7-15-15-15s-15,6.7-15,15v15h-76V46c0-8.3-6.7-15-15-15s-15,6.7-15,15v15h-75V46
	c0-8.3-6.7-15-15-15s-15,6.7-15,15v15h-76c-8.3,0-15,6.7-15,15v90c0,110.5-45.9,195.6-84.6,228.5c-4.9,4-6.7,10.7-4.5,16.6
	C3,417,8.7,421,15,421h75v45c0,8.3,6.7,15,15,15h392c8.3,0,15-6.7,15-15V76C512,67.7,505.3,61,497,61z M49.1,391
	c46.1-58.8,68.1-135.3,70.6-210h362c-3.4,95.2-39.9,170-80.6,210H49.1z M482,451H120v-30h287c3.5,0,6.9-1.2,9.6-3.5
	c18-15,46-50.8,65.4-96.6V451z M482,151H120V91h61v15c0,8.3,6.7,15,15,15s15-6.7,15-15V91h75v15c0,8.3,6.7,15,15,15s15-6.7,15-15V91
	h76v15c0,8.3,6.7,15,15,15s15-6.7,15-15V91h60V151z"/>
</svg>
