<?xml version="1.0" encoding="utf-8"?>
<!-- Generator: Adobe Illustrator 26.5.0, SVG Export Plug-In . SVG Version: 6.00 Build 0)  -->
<svg version="1.1" id="Capa_1" xmlns="http://www.w3.org/2000/svg" xmlns:xlink="http://www.w3.org/1999/xlink" x="0px" y="0px"
	 viewBox="0 0 512 512" style="enable-background:new 0 0 512 512;" xml:space="preserve">
<style type="text/css">
	.st0{fill:#A360FF;}
	.st1{fill:#7900FF;}
	.st2{fill:#999999;}
	.st3{fill:#FFFFFF;}
</style>
<g>
	<path class="st2" d="M477.1,440.5c19.3,0,34.9-15.7,34.9-34.9V50c0-27.6-22.4-50-50-50H50C22.4,0,0,22.4,0,50v355.6
		c0,19.3,15.7,34.9,34.9,34.9H46V492H10c-5.5,0-10,4.5-10,10c0,5.5,4.5,10,10,10h492c5.5,0,10-4.5,10-10c0-5.5-4.5-10-10-10h-36
		v-51.5H477.1z M20,50c0-16.5,13.5-30,30-30h412c16.5,0,30,13.5,30,30v22H21c-0.3,0-0.7,0-1,0.1V50z M110,492H66v-90h44V492z
		 M222,492h-44V291.4h44V492z M334,492h-44V376h44V492z M456,256.5h-64c-5.5,0-10,4.5-10,10V317c0,5.5,4.5,10,10,10s10-4.5,10-10
		v-40.5h44V492h-44V384.2c0-5.5-4.5-10-10-10s-10,4.5-10,10V492h-28V366c0-5.5-4.5-10-10-10h-64c-5.5,0-10,4.5-10,10v126h-28V281.4
		c0-5.5-4.5-10-10-10h-64c-5.5,0-10,4.5-10,10V492h-28V392c0-5.5-4.5-10-10-10H56c-5.5,0-10,4.5-10,10v28.5H34.9
		c-8.2,0-14.9-6.7-14.9-14.9V91.9c0.3,0,0.7,0.1,1,0.1h471v313.6c0,8.2-6.7,14.9-14.9,14.9H466v-154C466,261,461.5,256.5,456,256.5z
		"/>
	<path class="st2" d="M222.1,56H448c5.5,0,10-4.5,10-10s-4.5-10-10-10H222.1c-5.5,0-10,4.5-10,10S216.5,56,222.1,56z"/>
	<path class="st2" d="M104,56c2.6,0,5.2-1.1,7.1-2.9c1.9-1.9,2.9-4.4,2.9-7.1s-1.1-5.2-2.9-7.1S106.6,36,104,36s-5.2,1.1-7.1,2.9
		C95.1,40.8,94,43.4,94,46s1.1,5.2,2.9,7.1C98.8,54.9,101.4,56,104,56z"/>
	<path class="st2" d="M64,56c2.6,0,5.2-1.1,7.1-2.9c1.9-1.9,2.9-4.4,2.9-7.1s-1.1-5.2-2.9-7.1S66.6,36,64,36s-5.2,1.1-7.1,2.9
		C55.1,40.8,54,43.4,54,46s1.1,5.2,2.9,7.1C58.8,54.9,61.4,56,64,56z"/>
	<path class="st2" d="M144,56c2.6,0,5.2-1.1,7.1-2.9c1.9-1.9,2.9-4.4,2.9-7.1s-1.1-5.2-2.9-7.1S146.6,36,144,36
		c-2.6,0-5.2,1.1-7.1,2.9c-1.9,1.9-2.9,4.4-2.9,7.1s1.1,5.2,2.9,7.1C138.8,54.9,141.4,56,144,56z"/>
	<path class="st2" d="M384.9,359.7c1.9,1.9,4.4,2.9,7.1,2.9s5.2-1.1,7.1-2.9c1.9-1.9,2.9-4.4,2.9-7.1c0-2.6-1.1-5.2-2.9-7.1
		c-1.9-1.9-4.4-2.9-7.1-2.9s-5.2,1.1-7.1,2.9c-1.9,1.9-2.9,4.4-2.9,7.1S383.1,357.8,384.9,359.7z"/>
	<path class="st2" d="M424,135.9c-19.9,0-36,16.1-36,36c0,7.9,2.6,15.2,6.9,21.1l-66.4,66.4c-5.2-2.9-11.1-4.5-17.4-4.5
		c-5.7,0-11,1.3-15.8,3.7l-69.4-69.4c2.9-5.2,4.5-11.1,4.5-17.4c0-19.9-16.1-36-36-36s-36,16.1-36,36c0,6.9,2,13.4,5.4,18.9
		l-59.1,59.1c-5.2-2.9-11.1-4.5-17.4-4.5c-19.9,0-36,16.1-36,36s16.1,36,36,36c19.9,0,36-16.1,36-36c0-6.3-1.6-12.2-4.5-17.4
		l59.8-59.8c4.8,2.3,10.1,3.6,15.8,3.6c6.3,0,12.2-1.6,17.4-4.5l68.7,68.7c-3.4,5.5-5.4,12-5.4,18.9c0,19.9,16.1,36,36,36
		s36-16.1,36-36c0-6.3-1.6-12.2-4.5-17.4l68.2-68.2c4.1,1.6,8.5,2.5,13.2,2.5c19.9,0,36-16.1,36-36C460,152.1,443.9,135.9,424,135.9
		z M87.3,297.4c-8.8,0-16-7.2-16-16c0-8.8,7.2-16,16-16c8.8,0,16,7.2,16,16C103.3,290.3,96.2,297.4,87.3,297.4z M194.4,187.9
		c-8.8,0-16-7.2-16-16c0-8.8,7.2-16,16-16s16,7.2,16,16C210.4,180.8,203.2,187.9,194.4,187.9z M311.1,307c-8.8,0-16-7.2-16-16
		c0-8.8,7.2-16,16-16c8.8,0,16,7.2,16,16C327.1,299.8,319.9,307,311.1,307z M424,187.9c-8.8,0-16-7.2-16-16c0-8.8,7.2-16,16-16
		c8.8,0,16,7.2,16,16C440,180.8,432.8,187.9,424,187.9z"/>
	<path class="st2" d="M141.3,146c2.6,0,5.2-1.1,7.1-2.9c1.9-1.9,2.9-4.4,2.9-7.1s-1.1-5.2-2.9-7.1c-1.9-1.9-4.4-2.9-7.1-2.9
		c-2.6,0-5.2,1.1-7.1,2.9c-1.9,1.9-2.9,4.4-2.9,7.1s1.1,5.2,2.9,7.1C136,145,138.6,146,141.3,146z"/>
	<path class="st2" d="M56,146h48c5.5,0,10-4.5,10-10c0-5.5-4.5-10-10-10H56c-5.5,0-10,4.5-10,10S50.5,146,56,146z"/>
	<path class="st2" d="M104,194c5.5,0,10-4.5,10-10c0-5.5-4.5-10-10-10H56c-5.5,0-10,4.5-10,10c0,5.5,4.5,10,10,10H104z"/>
</g>
</svg>
