<?xml version="1.0" encoding="utf-8"?>
<!-- Generator: Adobe Illustrator 26.5.0, SVG Export Plug-In . SVG Version: 6.00 Build 0)  -->
<svg version="1.1" id="Capa_1" xmlns="http://www.w3.org/2000/svg" xmlns:xlink="http://www.w3.org/1999/xlink" x="0px" y="0px"
	 viewBox="0 0 512 512" style="enable-background:new 0 0 512 512;" xml:space="preserve">
<style type="text/css">
	.st0{fill:#CC3333;}
	.st1{fill:#6600FF;}
	.st2{fill:#339933;}
	.st3{fill:#A360FF;}
	.st4{fill:#7900FF;}
	.st5{fill:#999999;}
	.st6{fill:#FFFFFF;}
	.st7{fill:#CCCCCC;}
	.st8{fill:#666666;}
	.st9{fill:#914DFD;}
	.st10{fill:#A166FD;}
	.st11{fill:#D1B0FF;}
	.st12{fill:#E0CCFF;}
	.st13{fill:#A366FF;}
	.st14{fill:#944DFF;}
	.st15{fill:#F2F2F2;}
	.st16{clip-path:url(#SVGID_00000132775202210301429860000001729861817781264295_);}
	.st17{clip-path:url(#SVGID_00000015320656494075622810000009991117393567019950_);}
	.st18{clip-path:url(#SVGID_00000179628333077563011680000000926997827267331495_);}
	.st19{clip-path:url(#SVGID_00000183966995902158734000000015898803167155142023_);}
	.st20{clip-path:url(#SVGID_00000078045670660546210320000003740396874689822394_);}
	.st21{clip-path:url(#SVGID_00000080897655768767661910000014772796173886806954_);}
	.st22{clip-path:url(#SVGID_00000049216449604102663160000013741212439847954850_);}
	.st23{clip-path:url(#SVGID_00000173845140301365718760000008682293137184361137_);}
	.st24{clip-path:url(#SVGID_00000030447025540893654410000005853565849216351907_);}
	.st25{clip-path:url(#SVGID_00000139264305755626190860000005310646516446158268_);}
	.st26{clip-path:url(#SVGID_00000096758105252769623880000008179348101779787708_);}
	.st27{clip-path:url(#SVGID_00000106839152832282261570000000190318486942381473_);}
	.st28{clip-path:url(#SVGID_00000054959327564815087030000014158983878101747333_);}
	.st29{clip-path:url(#SVGID_00000140700474027851289660000010834754723318807172_);}
	.st30{clip-path:url(#SVGID_00000054267266536486686610000018235261404309314966_);}
	.st31{clip-path:url(#SVGID_00000048466195795129826580000007024346831706945949_);}
	.st32{clip-path:url(#SVGID_00000145761614836849291200000010022573854223921298_);}
	.st33{clip-path:url(#SVGID_00000030447992932445503650000008953622306182043815_);}
	.st34{clip-path:url(#SVGID_00000158001726907392611270000005069500423162920637_);}
	.st35{clip-path:url(#SVGID_00000088097061467375129680000003776076445206219177_);}
	.st36{clip-path:url(#SVGID_00000014611419383807348330000017931072794500681634_);}
	.st37{clip-path:url(#SVGID_00000060730903043997216400000002985764079209979282_);}
	.st38{clip-path:url(#SVGID_00000183215595448437675450000001410937278280428194_);}
	.st39{clip-path:url(#SVGID_00000008125728046537426270000013420844796849632138_);}
	.st40{clip-path:url(#SVGID_00000161618835107805462190000004778957652820083366_);}
</style>
<g>
	<path class="st6" d="M448,85.3h-66.1C371.7,35.7,328,0.1,277.3,0h-42.7C184,0.1,140.3,35.7,130.1,85.3H64
		c-11.8,0-21.3,9.6-21.3,21.3c0,11.8,9.6,21.3,21.3,21.3h21.3v277.3C85.4,464.2,133.1,511.9,192,512h128
		c58.9-0.1,106.6-47.8,106.7-106.7V128H448c11.8,0,21.3-9.6,21.3-21.3C469.3,94.9,459.8,85.3,448,85.3z M234.7,42.7h42.7
		c27.1,0,51.3,17.1,60.4,42.7H174.3C183.4,59.8,207.6,42.7,234.7,42.7z M384,405.3c0,35.3-28.7,64-64,64H192c-35.3,0-64-28.7-64-64
		V128h256V405.3z"/>
	<path class="st6" d="M213.3,384c11.8,0,21.3-9.6,21.3-21.3v-128c0-11.8-9.6-21.3-21.3-21.3c-11.8,0-21.3,9.6-21.3,21.3v128
		C192,374.4,201.6,384,213.3,384z"/>
	<path class="st6" d="M298.7,384c11.8,0,21.3-9.6,21.3-21.3v-128c0-11.8-9.6-21.3-21.3-21.3c-11.8,0-21.3,9.6-21.3,21.3v128
		C277.3,374.4,286.9,384,298.7,384z"/>
</g>
</svg>
