<?xml version="1.0" encoding="utf-8"?>
<!-- Generator: Adobe Illustrator 26.5.0, SVG Export Plug-In . SVG Version: 6.00 Build 0)  -->
<svg version="1.1" id="Capa_1" xmlns="http://www.w3.org/2000/svg" xmlns:xlink="http://www.w3.org/1999/xlink" x="0px" y="0px"
	 viewBox="0 0 512 512" style="enable-background:new 0 0 512 512;" xml:space="preserve">
<style type="text/css">
	.st0{fill:#CC3333;}
	.st1{fill:#6600FF;}
	.st2{fill:#339933;}
	.st3{fill:#A360FF;}
	.st4{fill:#7900FF;}
	.st5{fill:#999999;}
	.st6{fill:#FFFFFF;}
	.st7{fill:#CCCCCC;}
	.st8{fill:#666666;}
	.st9{fill:#914DFD;}
	.st10{fill:#A166FD;}
	.st11{fill:#D1B0FF;}
	.st12{fill:#E0CCFF;}
	.st13{fill:#A366FF;}
	.st14{fill:#944DFF;}
	.st15{fill:#F2F2F2;}
	.st16{clip-path:url(#SVGID_00000124135188224416320050000014198963717004651163_);}
	.st17{clip-path:url(#SVGID_00000061435806675519883720000001230210344068806585_);}
	.st18{clip-path:url(#SVGID_00000090976260804841410700000005469616373738097051_);}
	.st19{clip-path:url(#SVGID_00000014629408712748587480000016126923330172486554_);}
	.st20{clip-path:url(#SVGID_00000130622682049043816730000007978590342170282915_);}
	.st21{clip-path:url(#SVGID_00000038398823992776245170000009972519323050745757_);}
	.st22{clip-path:url(#SVGID_00000025427200065334356730000013813051329033323695_);}
	.st23{clip-path:url(#SVGID_00000118367659290851050070000016887822445846726041_);}
	.st24{clip-path:url(#SVGID_00000114066848722697352690000016095010789823100554_);}
	.st25{clip-path:url(#SVGID_00000024710622651864219430000001706668006006637232_);}
	.st26{clip-path:url(#SVGID_00000103229521415353503090000012634822530762094520_);}
	.st27{clip-path:url(#SVGID_00000085961432936676647740000015603845921886891935_);}
	.st28{clip-path:url(#SVGID_00000052812554929951607810000007253898655373010861_);}
	.st29{clip-path:url(#SVGID_00000177485276013142718110000010007047812324886423_);}
	.st30{clip-path:url(#SVGID_00000028287101158814915200000010160109807900189629_);}
	.st31{clip-path:url(#SVGID_00000089557274784183222050000003810842445451712922_);}
	.st32{clip-path:url(#SVGID_00000157997129974119739600000016429465481380661951_);}
	.st33{clip-path:url(#SVGID_00000170993850541647725850000015920951377412411013_);}
	.st34{clip-path:url(#SVGID_00000132798667191417269790000016374559564186176958_);}
	.st35{clip-path:url(#SVGID_00000108311140437052963030000016434044563979294095_);}
	.st36{clip-path:url(#SVGID_00000096047280489557198150000012392769246718506887_);}
	.st37{clip-path:url(#SVGID_00000174579927269255128720000010068849883530119869_);}
	.st38{clip-path:url(#SVGID_00000147911191300379001170000002159971549360344500_);}
	.st39{clip-path:url(#SVGID_00000113318173929353387540000003603846634567888059_);}
	.st40{clip-path:url(#SVGID_00000057139162292334524320000018391780313134076037_);}
</style>
<g>
	<path class="st5" d="M391.5,241.8V35c0-19.3-15.7-35-35-35H35C15.7,0,0,15.7,0,35v442c0,19.3,15.7,35,35,35h341.5
		c74.7,0,135.5-60.8,135.5-135.5C512,306.9,459.2,249.3,391.5,241.8z M35,482c-2.8,0-5-2.2-5-5V35c0-2.8,2.2-5,5-5h321.5
		c2.8,0,5,2.2,5,5v206.8c-20.2,2.2-39.1,8.9-55.6,19.1c1-2,1.5-4.2,1.5-6.6c0-8.3-6.7-15-15-15h-17.3c-8.3,0-15,6.7-15,15
		s6.7,15,15,15h17.3c0.5,0,0.9,0,1.4-0.1c-32.1,24.8-52.8,63.7-52.8,107.2c0,42.6,19.8,80.6,50.6,105.5H35z M359.9,480.7
		c-50.3-8-88.9-51.7-88.9-104.2c0-64.2,57.2-113.6,120.5-104.4c51.1,7.3,90.5,51.3,90.5,104.4C482,441.3,423.8,491,359.9,480.7z"/>
	<path class="st5" d="M392.8,362.3L392.8,362.3c-9.6-3.4-20.1-7.4-25.8-11.9c-1.7-1.4-2.4-18.5,20.7-8.8c5.9,2.5,12.7,1,17-3.7
		c6.9-7.7,4.1-20-5.5-23.8c-2.4-1-5-1.9-7.7-2.6V309c0-8.3-6.7-15-15-15s-15,6.7-15,15v2.1c-12.6,4.4-21.9,15.5-24.5,29.2
		c-2.5,13.3,1.9,26.2,11.5,33.8c9,7.1,21.8,12.1,34.3,16.6c7.4,2.6,8.2,8,7.5,12c-0.8,4.5-4.6,12-14.2,12.1
		c-10,0.1-12.4-0.3-19.7-5.1c-6.9-4.5-16.2-2.6-20.8,4.3c-4.5,6.9-2.6,16.2,4.3,20.8c8.1,5.3,14.5,7.9,21.5,9.1
		c0,8.9,7,15.2,15,15.2c8.3,0,15-6.7,15-15v-2.1C427.7,428.5,432,376.2,392.8,362.3z"/>
	<path class="st5" d="M291.1,181c13.8,0,25-11.2,25-25V88c0-13.8-11.2-25-25-25H100.4c-13.8,0-25,11.2-25,25v68
		c0,13.8,11.2,25,25,25H291.1z M105.4,93h180.6v58H105.4V93z"/>
	<path class="st5" d="M116.4,239.3H99.1c-8.3,0-15,6.7-15,15s6.7,15,15,15h17.3c8.3,0,15-6.7,15-15S124.7,239.3,116.4,239.3z"/>
	<path class="st5" d="M204.4,239.3h-17.3c-8.3,0-15,6.7-15,15s6.7,15,15,15h17.3c8.3,0,15-6.7,15-15S212.7,239.3,204.4,239.3z"/>
	<path class="st5" d="M116.4,323H99.1c-8.3,0-15,6.7-15,15s6.7,15,15,15h17.3c8.3,0,15-6.7,15-15S124.7,323,116.4,323z"/>
	<path class="st5" d="M204.4,323h-17.3c-8.3,0-15,6.7-15,15s6.7,15,15,15h17.3c8.3,0,15-6.7,15-15S212.7,323,204.4,323z"/>
	<path class="st5" d="M116.4,406.7H99.1c-8.3,0-15,6.7-15,15s6.7,15,15,15h17.3c8.3,0,15-6.7,15-15S124.7,406.7,116.4,406.7z"/>
	<path class="st5" d="M204.4,406.7h-17.3c-8.3,0-15,6.7-15,15s6.7,15,15,15h17.3c8.3,0,15-6.7,15-15S212.7,406.7,204.4,406.7z"/>
</g>
</svg>
