<?xml version="1.0" encoding="utf-8"?>
<!-- Generator: Adobe Illustrator 26.5.0, SVG Export Plug-In . SVG Version: 6.00 Build 0)  -->
<svg version="1.1" id="Capa_1" xmlns="http://www.w3.org/2000/svg" xmlns:xlink="http://www.w3.org/1999/xlink" x="0px" y="0px"
	 viewBox="0 0 512 512" style="enable-background:new 0 0 512 512;" xml:space="preserve">
<style type="text/css">
	.st0{fill:#CC3333;}
	.st1{fill:#6600FF;}
	.st2{fill:#339933;}
	.st3{fill:#A360FF;}
	.st4{fill:#7900FF;}
	.st5{fill:#999999;}
	.st6{fill:#FFFFFF;}
	.st7{fill:#CCCCCC;}
	.st8{fill:#666666;}
	.st9{fill:#914DFD;}
	.st10{fill:#A166FD;}
	.st11{fill:#D1B0FF;}
	.st12{fill:#E0CCFF;}
	.st13{fill:#A366FF;}
	.st14{fill:#944DFF;}
	.st15{fill:#F2F2F2;}
	.st16{clip-path:url(#SVGID_00000036216084246721676580000000464304997694745241_);}
	.st17{clip-path:url(#SVGID_00000000215525974540231540000016554295715428593306_);}
	.st18{clip-path:url(#SVGID_00000148629198868253243670000000969727681960248473_);}
	.st19{clip-path:url(#SVGID_00000144325535874175589610000009391305665012973953_);}
	.st20{clip-path:url(#SVGID_00000076583154372641455410000007151136444258088359_);}
	.st21{clip-path:url(#SVGID_00000168115207570966342740000002077429684079479450_);}
	.st22{clip-path:url(#SVGID_00000015352635655805463190000011531673966546830999_);}
	.st23{clip-path:url(#SVGID_00000026121691105413549490000010100528634811218323_);}
	.st24{clip-path:url(#SVGID_00000059304367228704880200000011834141689579554982_);}
	.st25{clip-path:url(#SVGID_00000124851600310156003660000013676033622241225112_);}
	.st26{clip-path:url(#SVGID_00000027587172806580888890000003240207739066732177_);}
	.st27{clip-path:url(#SVGID_00000078046485962990523000000011099792656381982900_);}
	.st28{clip-path:url(#SVGID_00000125592804059314441000000008870089022360177050_);}
	.st29{clip-path:url(#SVGID_00000029758861388061193670000003736153837389020318_);}
	.st30{clip-path:url(#SVGID_00000155104589724205653750000005621811145838497438_);}
	.st31{clip-path:url(#SVGID_00000058556784678291000390000014729562176836673945_);}
	.st32{clip-path:url(#SVGID_00000110446315257979533390000017804550947275981243_);}
	.st33{clip-path:url(#SVGID_00000051380060714642509600000004317916494102099337_);}
	.st34{clip-path:url(#SVGID_00000165215743108741229650000018292578658748749467_);}
	.st35{clip-path:url(#SVGID_00000152956854909027424230000001520733113672583348_);}
	.st36{clip-path:url(#SVGID_00000058583376914982089470000016243780488607408538_);}
	.st37{clip-path:url(#SVGID_00000080916636091042234910000011609689067949973435_);}
	.st38{clip-path:url(#SVGID_00000108286729006579784520000004543403558098182312_);}
	.st39{clip-path:url(#SVGID_00000115490115313591727800000001493558902478242748_);}
	.st40{clip-path:url(#SVGID_00000068663838289715820250000014682368882459805883_);}
</style>
<g>
	<path class="st8" d="M320,320h-42.7v-42.7c0-11.8-9.6-21.3-21.3-21.3c-11.8,0-21.3,9.6-21.3,21.3V320H192
		c-11.8,0-21.3,9.6-21.3,21.3c0,11.8,9.6,21.3,21.3,21.3h42.7v42.7c0,11.8,9.6,21.3,21.3,21.3c11.8,0,21.3-9.6,21.3-21.3v-42.7H320
		c11.8,0,21.3-9.6,21.3-21.3C341.3,329.6,331.8,320,320,320z"/>
	<path class="st8" d="M425.6,118.1l-74.3-74.4c-28-28.1-66-43.8-105.6-43.7h-96.3C90.5,0.1,42.7,47.8,42.7,106.7v298.7
		c0.1,58.9,47.8,106.6,106.7,106.7h213.3c58.9-0.1,106.6-47.8,106.7-106.7V223.7C469.4,184.1,453.7,146,425.6,118.1z M298.7,57.3
		c8.2,4.5,15.7,10.1,22.4,16.6l74.3,74.4c6.5,6.7,12.1,14.2,16.7,22.4H320c-11.8,0-21.3-9.6-21.3-21.3V57.3z M426.7,405.3
		c0,35.3-28.7,64-64,64H149.3c-35.3,0-64-28.7-64-64V106.7c0-35.3,28.7-64,64-64h96.3c3.5,0,6.9,0.7,10.3,1v105.7
		c0,35.3,28.7,64,64,64h105.7c0.3,3.5,1,6.8,1,10.3V405.3z"/>
</g>
</svg>
