<?xml version="1.0" encoding="utf-8"?>
<!-- Generator: Adobe Illustrator 26.5.0, SVG Export Plug-In . SVG Version: 6.00 Build 0)  -->
<svg version="1.1" id="Capa_1" xmlns="http://www.w3.org/2000/svg" xmlns:xlink="http://www.w3.org/1999/xlink" x="0px" y="0px"
	 viewBox="0 0 512 512" style="enable-background:new 0 0 512 512;" xml:space="preserve">
<style type="text/css">
	.st0{fill:#CC3333;}
	.st1{fill:#6600FF;}
	.st2{fill:#339933;}
	.st3{fill:#A360FF;}
	.st4{fill:#7900FF;}
	.st5{fill:#999999;}
	.st6{fill:#FFFFFF;}
	.st7{fill:#CCCCCC;}
	.st8{fill:#666666;}
	.st9{fill:#914DFD;}
	.st10{fill:#A166FD;}
	.st11{fill:#D1B0FF;}
	.st12{fill:#E0CCFF;}
	.st13{fill:#A366FF;}
	.st14{fill:#944DFF;}
	.st15{fill:#F2F2F2;}
	.st16{clip-path:url(#SVGID_00000040536629944574851030000015056744400462840761_);}
	.st17{clip-path:url(#SVGID_00000111153650856326003890000013659389007257613497_);}
	.st18{clip-path:url(#SVGID_00000169523161222033724050000004646884460096041621_);}
	.st19{clip-path:url(#SVGID_00000104689773354779097520000000323508557910925477_);}
	.st20{clip-path:url(#SVGID_00000005262204525247285470000006612237956057293442_);}
	.st21{clip-path:url(#SVGID_00000027562981109338515350000011356101596319703957_);}
	.st22{clip-path:url(#SVGID_00000161609897280447979660000016003395360419515581_);}
	.st23{clip-path:url(#SVGID_00000116929791518863551750000001323514641780854719_);}
	.st24{clip-path:url(#SVGID_00000109709043487214789140000013105278167405211020_);}
	.st25{clip-path:url(#SVGID_00000031174306787730641980000005339643030814970764_);}
	.st26{clip-path:url(#SVGID_00000137129775623274832210000000581324375595208595_);}
	.st27{clip-path:url(#SVGID_00000053527472415338751920000014677043899188638623_);}
	.st28{clip-path:url(#SVGID_00000153680037620822846180000011849809344154180498_);}
	.st29{clip-path:url(#SVGID_00000114070538644453423190000017232481759011834015_);}
	.st30{clip-path:url(#SVGID_00000140723827668885317810000015319595961673118140_);}
	.st31{clip-path:url(#SVGID_00000007396827309832531830000002747895710623912109_);}
	.st32{clip-path:url(#SVGID_00000170267200927347135190000016638358871490115736_);}
	.st33{clip-path:url(#SVGID_00000005951201508514925970000013060014057501460639_);}
	.st34{clip-path:url(#SVGID_00000095314827905998228890000007006797090999250339_);}
	.st35{clip-path:url(#SVGID_00000098921556139312486290000012127434518617048228_);}
	.st36{clip-path:url(#SVGID_00000181799554478602781940000002820332620199271602_);}
	.st37{clip-path:url(#SVGID_00000148626595872834552570000005258753284775000219_);}
	.st38{clip-path:url(#SVGID_00000011000694272137864810000007045181237231481232_);}
	.st39{clip-path:url(#SVGID_00000042735785724725330140000013031415487719783866_);}
	.st40{clip-path:url(#SVGID_00000061463765752280535790000004804209438844013474_);}
</style>
<g>
	<path class="st6" d="M441.6,25.1H70.4C31.5,25.1,0,56.6,0,95.5v227.2c0,38.7,31.4,70.3,70.1,70.4v83.7c0,8.2,9.2,13,15.9,8.3
		l132.3-92h223.3c38.9,0,70.4-31.5,70.4-70.4V95.5C512,56.6,480.5,25.1,441.6,25.1z M482,322.7c0,22.3-18.1,40.4-40.4,40.4H208.9
		l-108.7,75.7V363H70.4C48.1,363,30,344.9,30,322.7V95.5c0-22.3,18.1-40.4,40.4-40.4h371.2c22.3,0,40.4,18.1,40.4,40.4V322.7z"/>
	<path class="st6" d="M152,161.1H360c8.3,0,15-6.7,15-15v0c0-8.3-6.7-15-15-15H152c-8.3,0-15,6.7-15,15v0
		C137,154.4,143.8,161.1,152,161.1z"/>
	<path class="st6" d="M152,225.1H360c8.3,0,15-6.7,15-15v0c0-8.3-6.7-15-15-15H152c-8.3,0-15,6.7-15,15v0
		C137,218.4,143.8,225.1,152,225.1z"/>
	<path class="st6" d="M152,289.1H360c8.3,0,15-6.7,15-15v0c0-8.3-6.7-15-15-15H152c-8.3,0-15,6.7-15,15v0
		C137,282.4,143.8,289.1,152,289.1z"/>
</g>
</svg>
