<?xml version="1.0" encoding="utf-8"?>
<!-- Generator: Adobe Illustrator 26.5.0, SVG Export Plug-In . SVG Version: 6.00 Build 0)  -->
<svg version="1.1" id="Capa_1" xmlns="http://www.w3.org/2000/svg" xmlns:xlink="http://www.w3.org/1999/xlink" x="0px" y="0px"
	 viewBox="0 0 512 512" style="enable-background:new 0 0 512 512;" xml:space="preserve">
<style type="text/css">
	.st0{fill:#CC3333;}
	.st1{fill:#6600FF;}
	.st2{fill:#339933;}
	.st3{fill:#A360FF;}
	.st4{fill:#7900FF;}
	.st5{fill:#999999;}
	.st6{fill:#FFFFFF;}
	.st7{fill:#CCCCCC;}
	.st8{fill:#666666;}
	.st9{fill:#914DFD;}
	.st10{fill:#A166FD;}
	.st11{fill:#D1B0FF;}
	.st12{fill:#E0CCFF;}
	.st13{fill:#A366FF;}
	.st14{fill:#944DFF;}
	.st15{fill:#F2F2F2;}
	.st16{clip-path:url(#SVGID_00000114065480205416976110000018044149598428398476_);}
	.st17{clip-path:url(#SVGID_00000052063891701967311010000004461359911883431571_);}
	.st18{clip-path:url(#SVGID_00000060003402978303041600000008889039247611825572_);}
	.st19{clip-path:url(#SVGID_00000015326236144678190040000015500259731493832626_);}
	.st20{clip-path:url(#SVGID_00000165212283589662551190000013031561477185918363_);}
	.st21{clip-path:url(#SVGID_00000044864036133169319590000018304504691629558712_);}
	.st22{clip-path:url(#SVGID_00000061466597085603733990000005580204125982666413_);}
	.st23{clip-path:url(#SVGID_00000105394236479126563770000003808710853957644174_);}
	.st24{clip-path:url(#SVGID_00000072240410930418557220000000010912199945218207_);}
	.st25{clip-path:url(#SVGID_00000177480962025624753350000008038822272539517826_);}
	.st26{clip-path:url(#SVGID_00000003086759740760146520000005066169839088719275_);}
	.st27{clip-path:url(#SVGID_00000070083902368859059510000000936908315970401470_);}
	.st28{clip-path:url(#SVGID_00000036947247945328608270000004510645768439250842_);}
	.st29{clip-path:url(#SVGID_00000070807958061368767660000000582122988065056676_);}
	.st30{clip-path:url(#SVGID_00000137823047025840457100000012643775354963750061_);}
	.st31{clip-path:url(#SVGID_00000135666074808173750980000004939957436624146334_);}
	.st32{clip-path:url(#SVGID_00000102530822228687390350000001503670429362625716_);}
	.st33{clip-path:url(#SVGID_00000043453301928834771180000007808307069097601925_);}
	.st34{clip-path:url(#SVGID_00000165197219809407908130000012750892625832533181_);}
	.st35{clip-path:url(#SVGID_00000109003945712183090290000015085313450238821311_);}
	.st36{clip-path:url(#SVGID_00000051354519897917561660000009441769377688667068_);}
	.st37{clip-path:url(#SVGID_00000036941321148769029730000006763909576061252280_);}
	.st38{clip-path:url(#SVGID_00000146476200427439512970000015372917883521453956_);}
	.st39{clip-path:url(#SVGID_00000072980760631369689860000001959316269075928740_);}
	.st40{clip-path:url(#SVGID_00000181767897795989417620000000812364179237971094_);}
</style>
<path class="st0" d="M412,512H100C44.8,512,0,467.2,0,412V100C0,44.8,44.8,0,100,0h312c55.2,0,100,44.8,100,100v312
	C512,467.2,467.2,512,412,512z"/>
<g>
	<path class="st6" d="M373.4,151.7h-40.4c-6.2-30.3-32.9-52.1-63.9-52.2H243c-31,0-57.7,21.8-63.9,52.2h-40.4c-7.2,0-13,5.8-13,13
		c0,7.2,5.8,13,13,13h13v169.5c0,36,29.2,65.2,65.2,65.2h78.2c36,0,65.2-29.2,65.2-65.2V177.7h13c7.2,0,13-5.8,13-13
		C386.4,157.5,380.6,151.7,373.4,151.7z M243,125.6H269c16.6,0,31.3,10.5,36.9,26.1h-99.9C211.6,136,226.4,125.6,243,125.6z
		 M334.2,347.3c0,21.6-17.5,39.1-39.1,39.1h-78.2c-21.6,0-39.1-17.5-39.1-39.1V177.7h156.5V347.3z"/>
	<path class="st6" d="M229.9,334.2c7.2,0,13-5.8,13-13V243c0-7.2-5.8-13-13-13c-7.2,0-13,5.8-13,13v78.2
		C216.9,328.4,222.7,334.2,229.9,334.2z"/>
	<path class="st6" d="M282.1,334.2c7.2,0,13-5.8,13-13V243c0-7.2-5.8-13-13-13c-7.2,0-13,5.8-13,13v78.2
		C269,328.4,274.9,334.2,282.1,334.2z"/>
</g>
</svg>
