<?xml version="1.0" encoding="utf-8"?>
<!-- Generator: Adobe Illustrator 26.5.0, SVG Export Plug-In . SVG Version: 6.00 Build 0)  -->
<svg version="1.1" id="Capa_1" xmlns="http://www.w3.org/2000/svg" xmlns:xlink="http://www.w3.org/1999/xlink" x="0px" y="0px"
	 viewBox="0 0 512 512" style="enable-background:new 0 0 512 512;" xml:space="preserve">
<style type="text/css">
	.st0{fill:#CC3333;}
	.st1{fill:#6600FF;}
	.st2{fill:#339933;}
	.st3{fill:#A360FF;}
	.st4{fill:#7900FF;}
	.st5{fill:#999999;}
	.st6{fill:#FFFFFF;}
	.st7{fill:#CCCCCC;}
	.st8{fill:#666666;}
	.st9{fill:#914DFD;}
	.st10{fill:#A166FD;}
	.st11{fill:#D1B0FF;}
	.st12{fill:#E0CCFF;}
	.st13{fill:#A366FF;}
	.st14{fill:#944DFF;}
	.st15{fill:#F2F2F2;}
	.st16{clip-path:url(#SVGID_00000114762204816074733550000014425098215666476963_);}
	.st17{clip-path:url(#SVGID_00000111908550365970600070000007410714642371497863_);}
	.st18{clip-path:url(#SVGID_00000121252061761621543130000014984008805609830310_);}
	.st19{clip-path:url(#SVGID_00000113331244658000211030000013824918629607699871_);}
	.st20{clip-path:url(#SVGID_00000027570627682097517840000003700915164836486016_);}
	.st21{clip-path:url(#SVGID_00000049182988652525706570000013692814128174709888_);}
	.st22{clip-path:url(#SVGID_00000111171309148574160000000012970468435418547340_);}
	.st23{clip-path:url(#SVGID_00000020365335765994117600000014526896309623318459_);}
	.st24{clip-path:url(#SVGID_00000034081052820334165640000007780869665731678633_);}
	.st25{clip-path:url(#SVGID_00000023244088192858711550000007420371335429871545_);}
	.st26{clip-path:url(#SVGID_00000137117494468043912490000016819309423025538230_);}
	.st27{clip-path:url(#SVGID_00000109715454789673650020000007055692809542400386_);}
	.st28{clip-path:url(#SVGID_00000021822492387611958650000011721467976976931494_);}
	.st29{clip-path:url(#SVGID_00000023269945021535297770000016225472921804398737_);}
	.st30{clip-path:url(#SVGID_00000086686311618778312930000007874893462222687373_);}
	.st31{clip-path:url(#SVGID_00000048475020283018655770000008516278600353061536_);}
	.st32{clip-path:url(#SVGID_00000029034291440303433210000016745824979201914814_);}
	.st33{clip-path:url(#SVGID_00000154408477843912831640000006666956205885466557_);}
	.st34{clip-path:url(#SVGID_00000059278665248446122640000014117546356453737393_);}
	.st35{clip-path:url(#SVGID_00000011005630541617794320000007106166260741519002_);}
	.st36{clip-path:url(#SVGID_00000081611880683728622920000016743214509137312422_);}
	.st37{clip-path:url(#SVGID_00000047053212573757795320000017449009951834571163_);}
	.st38{clip-path:url(#SVGID_00000144298067535370042020000017160669273430685595_);}
	.st39{clip-path:url(#SVGID_00000000912905876281272830000002281634086180876950_);}
	.st40{clip-path:url(#SVGID_00000064318194260991472580000011987841782494964108_);}
</style>
<path class="st7" d="M484.1,291.4l-40.5-145.8C414.1,39.8,304.5-22.1,198.8,7.3C128,27,73.9,84,58,155.7L26.6,296.8
	c-12.8,57.5,23.5,114.5,81,127.2c7.6,1.7,15.4,2.5,23.1,2.5h23.8c11.7,57.7,68,95,125.7,83.3c42-8.5,74.8-41.3,83.3-83.3h17.9
	c58.9,0,106.6-47.7,106.6-106.6C488,310.3,486.7,300.7,484.1,291.4L484.1,291.4z M259,469.2c-27-0.1-51.1-17.2-60.1-42.7H319
	C310,452,286,469.1,259,469.2z M432.3,358.6c-12.1,16-30.9,25.4-51,25.3H130.7c-35.3,0-64-28.7-64-64c0-4.7,0.5-9.3,1.5-13.9
	l31.4-141.1C118.3,80.8,201.7,27.7,285.9,46.4c56.3,12.5,101.1,55,116.5,110.6L443,302.8C448.4,322.1,444.4,342.7,432.3,358.6z"/>
</svg>
