<?xml version="1.0" encoding="utf-8"?>
<!-- Generator: Adobe Illustrator 26.5.0, SVG Export Plug-In . SVG Version: 6.00 Build 0)  -->
<svg version="1.1" id="Capa_1" xmlns="http://www.w3.org/2000/svg" xmlns:xlink="http://www.w3.org/1999/xlink" x="0px" y="0px"
	 viewBox="0 0 512 512" style="enable-background:new 0 0 512 512;" xml:space="preserve">
<style type="text/css">
	.st0{fill:#CC3333;}
	.st1{fill:#6600FF;}
	.st2{fill:#339933;}
	.st3{fill:#A360FF;}
	.st4{fill:#7900FF;}
	.st5{fill:#999999;}
	.st6{fill:#FFFFFF;}
	.st7{fill:#CCCCCC;}
	.st8{fill:#666666;}
	.st9{fill:#914DFD;}
	.st10{fill:#A166FD;}
	.st11{fill:#D1B0FF;}
	.st12{fill:#E0CCFF;}
	.st13{fill:#A366FF;}
	.st14{fill:#944DFF;}
	.st15{fill:#F2F2F2;}
	.st16{clip-path:url(#SVGID_00000100345986106177120770000002181486777669215111_);}
	.st17{clip-path:url(#SVGID_00000045590779682266817030000013396054967340854145_);}
	.st18{clip-path:url(#SVGID_00000057134566954247216610000000697206198232684220_);}
	.st19{clip-path:url(#SVGID_00000040565411957367155090000001617109490336146106_);}
	.st20{clip-path:url(#SVGID_00000081631707940123684140000000203743106353354924_);}
	.st21{clip-path:url(#SVGID_00000166651358632203314960000008264629111655086251_);}
	.st22{clip-path:url(#SVGID_00000163066791948056591750000017962007967915511952_);}
	.st23{clip-path:url(#SVGID_00000163792245166593271050000010800831874674289334_);}
	.st24{clip-path:url(#SVGID_00000116192908012226676130000004482763330618587779_);}
	.st25{clip-path:url(#SVGID_00000018198784577449909570000011374524231475875222_);}
	.st26{clip-path:url(#SVGID_00000062155916300945033420000004939197634397598135_);}
	.st27{clip-path:url(#SVGID_00000095317977272175731410000010829603732404255903_);}
	.st28{clip-path:url(#SVGID_00000034065425015521877880000007577381220533524900_);}
	.st29{clip-path:url(#SVGID_00000018230217575763763610000010193184862907813004_);}
	.st30{clip-path:url(#SVGID_00000183210499371847538810000006269485651398017700_);}
	.st31{clip-path:url(#SVGID_00000036960588573005620790000014108258650644437151_);}
	.st32{clip-path:url(#SVGID_00000083062635775989895820000011636843582324488089_);}
	.st33{clip-path:url(#SVGID_00000024724273322920437670000008469228405361386379_);}
	.st34{clip-path:url(#SVGID_00000121974397173699204480000006239424521930891945_);}
	.st35{clip-path:url(#SVGID_00000009549307028450896260000009270982544044285062_);}
	.st36{clip-path:url(#SVGID_00000172407318375667659390000018185630262677248649_);}
	.st37{clip-path:url(#SVGID_00000040576442227471659440000004550556806779692942_);}
	.st38{clip-path:url(#SVGID_00000079481974389839740920000016586552531571592637_);}
	.st39{clip-path:url(#SVGID_00000124854173669885079940000001587526557433076613_);}
	.st40{clip-path:url(#SVGID_00000002384647747760158350000008605394367604771233_);}
</style>
<g>
	<path class="st6" d="M496.4,201C463.3,147.1,388,56.7,256,56.7S48.7,147.1,15.6,201c-20.9,33.7-20.9,76.4,0,110.1
		C48.7,364.9,124,455.3,256,455.3S463.3,364.9,496.4,311C517.2,277.3,517.2,234.7,496.4,201z M460,288.7
		c-28.4,46.2-92.7,123.9-204,123.9S80.4,334.9,52,288.7c-12.4-20-12.4-45.4,0-65.4c28.4-46.2,92.7-123.9,204-123.9
		S431.6,177,460,223.3C472.4,243.3,472.4,268.7,460,288.7z"/>
	<path class="st6" d="M256,149.4c-58.9,0-106.6,47.7-106.6,106.6S197.1,362.6,256,362.6S362.6,314.9,362.6,256
		C362.6,197.1,314.9,149.4,256,149.4z M256,320c-35.3,0-64-28.6-64-64s28.6-64,64-64s64,28.6,64,64S291.3,320,256,320z"/>
</g>
</svg>
