<?xml version="1.0" encoding="utf-8"?>
<!-- Generator: Adobe Illustrator 26.5.0, SVG Export Plug-In . SVG Version: 6.00 Build 0)  -->
<svg version="1.1" id="Capa_1" xmlns="http://www.w3.org/2000/svg" xmlns:xlink="http://www.w3.org/1999/xlink" x="0px" y="0px"
	 viewBox="0 0 512 512" style="enable-background:new 0 0 512 512;" xml:space="preserve">
<style type="text/css">
	.st0{fill:#CC3333;}
	.st1{fill:#6600FF;}
	.st2{fill:#339933;}
	.st3{fill:#A360FF;}
	.st4{fill:#7900FF;}
	.st5{fill:#999999;}
	.st6{fill:#FFFFFF;}
	.st7{fill:#CCCCCC;}
	.st8{fill:#666666;}
	.st9{fill:#914DFD;}
	.st10{fill:#A166FD;}
	.st11{fill:#D1B0FF;}
	.st12{fill:#E0CCFF;}
	.st13{fill:#A366FF;}
	.st14{fill:#944DFF;}
	.st15{fill:#F2F2F2;}
	.st16{clip-path:url(#SVGID_00000142860532357768983650000010500533038644275870_);}
	.st17{clip-path:url(#SVGID_00000174587374672289382850000003746632386420126596_);}
	.st18{clip-path:url(#SVGID_00000152949100423321649160000003498057001503836848_);}
	.st19{clip-path:url(#SVGID_00000043454184098426482200000003310151007066838920_);}
	.st20{clip-path:url(#SVGID_00000026869422145880659740000007333590037198208920_);}
	.st21{clip-path:url(#SVGID_00000131335564588953516250000013025161708374839471_);}
	.st22{clip-path:url(#SVGID_00000128461259662559816800000010110373229978097308_);}
	.st23{clip-path:url(#SVGID_00000160891718995012416290000011345271167432269720_);}
	.st24{clip-path:url(#SVGID_00000065759333921734268800000018190034967678263443_);}
	.st25{clip-path:url(#SVGID_00000014594548028764487100000004895233537652103858_);}
	.st26{clip-path:url(#SVGID_00000000222865219244004070000003093616572139232946_);}
	.st27{clip-path:url(#SVGID_00000075842433321672159290000001018496875385718406_);}
	.st28{clip-path:url(#SVGID_00000172438352898342468700000014002201195300713623_);}
	.st29{clip-path:url(#SVGID_00000093861171955177275950000009312458240400447678_);}
	.st30{clip-path:url(#SVGID_00000029039794963677744320000013814234857844678556_);}
	.st31{clip-path:url(#SVGID_00000067234597169251753120000001046696839270732181_);}
	.st32{clip-path:url(#SVGID_00000159438756120143797690000003176994604876183711_);}
	.st33{clip-path:url(#SVGID_00000070827131075243049340000004171888736328821940_);}
	.st34{clip-path:url(#SVGID_00000150812555203612674300000003603143702271962292_);}
	.st35{clip-path:url(#SVGID_00000096017751012699991520000001750615483208580483_);}
	.st36{clip-path:url(#SVGID_00000179606200448459132970000012816408048843300516_);}
	.st37{clip-path:url(#SVGID_00000139289563655179786860000001142402465992507782_);}
	.st38{clip-path:url(#SVGID_00000026846454184985357560000017993028407226586243_);}
	.st39{clip-path:url(#SVGID_00000086655217820847359090000014826990531565042840_);}
	.st40{clip-path:url(#SVGID_00000139288703323132339500000017953614298154156715_);}
</style>
<path class="st6" d="M489.3,22.7c-30.3-30.3-79.4-30.3-109.7,0L31.4,370.9C11.2,391-0.1,418.2,0,446.6v44C0,502.4,9.6,512,21.4,512
	h44c28.4,0.1,55.7-11.2,75.7-31.3l348.3-348.3C519.6,102.1,519.6,53,489.3,22.7z M110.8,450.4c-12.1,12-28.4,18.7-45.4,18.8H42.8
	v-22.5c0-17,6.7-33.4,18.8-45.4l264.3-264.3l49.2,49.2L110.8,450.4z M458.9,102.2l0.1-0.1l-53.7,53.7l-49.2-49.1L409.8,53
	c13.6-13.6,35.6-13.5,49.2,0.1C472.6,66.6,472.5,88.7,458.9,102.2z"/>
</svg>
