<?xml version="1.0" encoding="utf-8"?>
<!-- Generator: Adobe Illustrator 26.5.0, SVG Export Plug-In . SVG Version: 6.00 Build 0)  -->
<svg version="1.1" id="Capa_1" xmlns="http://www.w3.org/2000/svg" xmlns:xlink="http://www.w3.org/1999/xlink" x="0px" y="0px"
	 viewBox="0 0 512 512" style="enable-background:new 0 0 512 512;" xml:space="preserve">
<style type="text/css">
	.st0{fill:#CC3333;}
	.st1{fill:#6600FF;}
	.st2{fill:#339933;}
	.st3{fill:#A360FF;}
	.st4{fill:#7900FF;}
	.st5{fill:#999999;}
	.st6{fill:#FFFFFF;}
	.st7{fill:#CCCCCC;}
	.st8{fill:#666666;}
	.st9{fill:#914DFD;}
	.st10{fill:#A166FD;}
	.st11{fill:#D1B0FF;}
	.st12{fill:#E0CCFF;}
	.st13{fill:#A366FF;}
	.st14{fill:#944DFF;}
	.st15{fill:#F2F2F2;}
	.st16{clip-path:url(#SVGID_00000122715220880523924960000003003206728569414578_);}
	.st17{clip-path:url(#SVGID_00000000931583630069415620000006106829794067354287_);}
	.st18{clip-path:url(#SVGID_00000082349276008229623080000000136868635169930920_);}
	.st19{clip-path:url(#SVGID_00000025427543813494588540000001613764431940624048_);}
	.st20{clip-path:url(#SVGID_00000034782848055093531890000015188708352069859749_);}
	.st21{clip-path:url(#SVGID_00000098200611528419158180000006285939844701504181_);}
	.st22{clip-path:url(#SVGID_00000005240505014908290480000007161437295148166303_);}
	.st23{clip-path:url(#SVGID_00000044155942534860855960000000852667847689635775_);}
	.st24{clip-path:url(#SVGID_00000047738766941333889530000013209790430319287954_);}
	.st25{clip-path:url(#SVGID_00000055701314554137594640000012443748572169608345_);}
	.st26{clip-path:url(#SVGID_00000077283581190752680840000008989870587426508435_);}
	.st27{clip-path:url(#SVGID_00000139255237248680871850000007193437700799411381_);}
	.st28{clip-path:url(#SVGID_00000070832149356088677130000002371208546547771068_);}
	.st29{clip-path:url(#SVGID_00000054251610944513038430000000500769891474108550_);}
	.st30{clip-path:url(#SVGID_00000085222632128528587290000006325046504689271938_);}
	.st31{clip-path:url(#SVGID_00000101807450532027169260000006540969087391621516_);}
	.st32{clip-path:url(#SVGID_00000162329922260355314710000002167211468633576584_);}
	.st33{clip-path:url(#SVGID_00000117675016031172029120000013138187954371239347_);}
	.st34{clip-path:url(#SVGID_00000065036622718934628530000012219269593224678542_);}
	.st35{clip-path:url(#SVGID_00000116918047832440951820000017770148355536469910_);}
	.st36{clip-path:url(#SVGID_00000163050022737701765580000000097404175387880836_);}
	.st37{clip-path:url(#SVGID_00000076588945333906113470000018064084539935073664_);}
	.st38{clip-path:url(#SVGID_00000167393480790563538030000014741147412430279554_);}
	.st39{clip-path:url(#SVGID_00000126300789948179074550000005492134944107352756_);}
	.st40{clip-path:url(#SVGID_00000152229122997306616650000012507056578200071090_);}
</style>
<path class="st1" d="M412,512H100C44.8,512,0,467.2,0,412V100C0,44.8,44.8,0,100,0h312c55.2,0,100,44.8,100,100v312
	C512,467.2,467.2,512,412,512z"/>
<path class="st6" d="M398.6,113.4c-18.5-18.5-48.5-18.5-67.1,0L118.7,326.3c-12.3,12.2-19.2,28.9-19.2,46.3v26.9
	c0,7.2,5.9,13.1,13.1,13.1h26.9c17.4,0,34-6.9,46.3-19.2l212.9-212.9C417.1,161.9,417.1,131.9,398.6,113.4z M167.2,374.8
	c-7.4,7.3-17.4,11.5-27.8,11.5h-13.8v-13.8c0-10.4,4.1-20.4,11.5-27.8l161.6-161.6l30.1,30.1L167.2,374.8z M380.1,162L380.1,162
	l-32.7,32.7l-30.1-30l32.8-32.8c8.3-8.3,21.8-8.3,30.1,0C388.4,140.2,388.4,153.7,380.1,162z"/>
</svg>
