<?xml version="1.0" encoding="utf-8"?>
<!-- Generator: Adobe Illustrator 26.5.0, SVG Export Plug-In . SVG Version: 6.00 Build 0)  -->
<svg version="1.1" id="Capa_1" xmlns="http://www.w3.org/2000/svg" xmlns:xlink="http://www.w3.org/1999/xlink" x="0px" y="0px"
	 viewBox="0 0 512 512" style="enable-background:new 0 0 512 512;" xml:space="preserve">
<style type="text/css">
	.st0{fill:#CC3333;}
	.st1{fill:#6600FF;}
	.st2{fill:#339933;}
	.st3{fill:#A360FF;}
	.st4{fill:#7900FF;}
	.st5{fill:#999999;}
	.st6{fill:#FFFFFF;}
	.st7{fill:#CCCCCC;}
	.st8{fill:#666666;}
	.st9{fill:#914DFD;}
	.st10{fill:#A166FD;}
	.st11{fill:#D1B0FF;}
	.st12{fill:#E0CCFF;}
	.st13{fill:#A366FF;}
	.st14{fill:#944DFF;}
	.st15{fill:#F2F2F2;}
	.st16{clip-path:url(#SVGID_00000114071874074435053620000001525749210905368753_);}
	.st17{clip-path:url(#SVGID_00000016789533820968915770000002433397805680877989_);}
	.st18{clip-path:url(#SVGID_00000173869407902708487830000000417732060313455504_);}
	.st19{clip-path:url(#SVGID_00000099658126089155885630000010604730521192759478_);}
	.st20{clip-path:url(#SVGID_00000182508792094602125470000015934373387652662439_);}
	.st21{clip-path:url(#SVGID_00000088836620808383394950000017172918150722625976_);}
	.st22{clip-path:url(#SVGID_00000011004590349514880180000016112936933408864385_);}
	.st23{clip-path:url(#SVGID_00000014595212532014520980000003263848440049793194_);}
	.st24{clip-path:url(#SVGID_00000021801004637919567010000010462179640191371171_);}
	.st25{clip-path:url(#SVGID_00000174591383260723966710000008824119481102124690_);}
	.st26{clip-path:url(#SVGID_00000109005968363719873270000015260794612934750613_);}
	.st27{clip-path:url(#SVGID_00000036974196633807524740000014696735130134211221_);}
	.st28{clip-path:url(#SVGID_00000093871546313462851460000005480307107083797890_);}
	.st29{clip-path:url(#SVGID_00000169547929551181126570000000548299701987076006_);}
	.st30{clip-path:url(#SVGID_00000066508791688951597820000005376116827499647637_);}
	.st31{clip-path:url(#SVGID_00000029035550902692114360000002496241694986271132_);}
	.st32{clip-path:url(#SVGID_00000166661899897962729290000004354249998284799930_);}
	.st33{clip-path:url(#SVGID_00000116913491172518440590000004408818853498911872_);}
	.st34{clip-path:url(#SVGID_00000030489036170297363560000014582147458719801503_);}
	.st35{clip-path:url(#SVGID_00000121981407591718978810000003924277845611880095_);}
	.st36{clip-path:url(#SVGID_00000173855572296282304430000008846284078000200111_);}
	.st37{clip-path:url(#SVGID_00000101799603209741606050000011151793131228541356_);}
	.st38{clip-path:url(#SVGID_00000015335328009245844470000018296045646043672493_);}
	.st39{clip-path:url(#SVGID_00000077314350334302566380000003509308990077149863_);}
	.st40{clip-path:url(#SVGID_00000121996594474917028220000012837141045426158764_);}
</style>
<path class="st5" d="M410.7,512h-85.3c-8.8,0-16-7.2-16-16V357.3c0-2.9-2.4-5.3-5.3-5.3h-96c-2.9,0-5.3,2.4-5.3,5.3V496
	c0,8.8-7.2,16-16,16h-85.3C80.8,512,64,495.3,64,474.7V277.3H26.7C12,277.3,0,265.4,0,250.7c0-7.1,2.9-14,7.9-19l237-227.2
	c6.2-5.9,16-5.9,22.1,0l236.8,227c5.2,5.3,8.1,12.2,8.1,19.2c0,14.7-12,26.7-26.7,26.7H448v197.3C448,495.3,431.2,512,410.7,512z
	 M341.3,480h69.3c2.9,0,5.3-2.4,5.3-5.3V261.3c0-8.8,7.2-16,16-16h40.1L256,38.2L39.9,245.3H80c8.8,0,16,7.2,16,16v213.3
	c0,2.9,2.4,5.3,5.3,5.3h69.3V357.3c0-20.6,16.7-37.3,37.3-37.3h96c20.6,0,37.3,16.7,37.3,37.3V480z"/>
</svg>
