<?xml version="1.0" encoding="utf-8"?>
<!-- Generator: Adobe Illustrator 26.5.0, SVG Export Plug-In . SVG Version: 6.00 Build 0)  -->
<svg version="1.1" id="Capa_1" xmlns="http://www.w3.org/2000/svg" xmlns:xlink="http://www.w3.org/1999/xlink" x="0px" y="0px"
	 viewBox="0 0 512 512" style="enable-background:new 0 0 512 512;" xml:space="preserve">
<style type="text/css">
	.st0{fill:#CC3333;}
	.st1{fill:#6600FF;}
	.st2{fill:#339933;}
	.st3{fill:#A360FF;}
	.st4{fill:#7900FF;}
	.st5{fill:#999999;}
	.st6{fill:#FFFFFF;}
	.st7{fill:#CCCCCC;}
	.st8{fill:#666666;}
	.st9{fill:#914DFD;}
	.st10{fill:#A166FD;}
	.st11{fill:#D1B0FF;}
	.st12{fill:#E0CCFF;}
	.st13{fill:#A366FF;}
	.st14{fill:#944DFF;}
	.st15{fill:#F2F2F2;}
	.st16{clip-path:url(#SVGID_00000128484285709043565580000015834267017341842067_);}
	.st17{clip-path:url(#SVGID_00000027575208155878304540000008491727718806012087_);}
	.st18{clip-path:url(#SVGID_00000142143888745070618300000012056899793361009036_);}
	.st19{clip-path:url(#SVGID_00000169524395544770821880000013955978140058151355_);}
	.st20{clip-path:url(#SVGID_00000079474963259155354660000012934085229205062075_);}
	.st21{clip-path:url(#SVGID_00000150099608021945244890000015916932069777678003_);}
	.st22{clip-path:url(#SVGID_00000181788882745352401320000008092225007137262468_);}
	.st23{clip-path:url(#SVGID_00000013157575109528372760000000554966005970607535_);}
	.st24{clip-path:url(#SVGID_00000007405053395117496580000001555847650982824625_);}
	.st25{clip-path:url(#SVGID_00000106133140955243593580000002604583470567669434_);}
	.st26{clip-path:url(#SVGID_00000106869959728099636800000000510318416297932946_);}
	.st27{clip-path:url(#SVGID_00000127023554166965825340000012124585962552779682_);}
	.st28{clip-path:url(#SVGID_00000013875017512914326860000010036413195819159216_);}
	.st29{clip-path:url(#SVGID_00000058571987080672681050000000145697872634717838_);}
	.st30{clip-path:url(#SVGID_00000036951289325295367780000007657383496140970384_);}
	.st31{clip-path:url(#SVGID_00000041987563283707791620000003502039796309362318_);}
	.st32{clip-path:url(#SVGID_00000025410119463402063250000004937293594022774408_);}
	.st33{clip-path:url(#SVGID_00000093155040569013165670000014070212218327474318_);}
	.st34{clip-path:url(#SVGID_00000078036167630251002630000008333882969415377564_);}
	.st35{clip-path:url(#SVGID_00000053547180451988837470000011323578568100734367_);}
	.st36{clip-path:url(#SVGID_00000114039901526472491460000016947220966692508084_);}
	.st37{clip-path:url(#SVGID_00000143590729594954586060000009121392492980221865_);}
	.st38{clip-path:url(#SVGID_00000020389554258794654120000016163030799758745513_);}
	.st39{clip-path:url(#SVGID_00000041278954710458558870000007953886729285700280_);}
	.st40{clip-path:url(#SVGID_00000058556487697676720550000007417055409100897462_);}
</style>
<path class="st6" d="M410.7,512h-85.3c-8.8,0-16-7.2-16-16V357.3c0-2.9-2.4-5.3-5.3-5.3h-96c-2.9,0-5.3,2.4-5.3,5.3V496
	c0,8.8-7.2,16-16,16h-85.3C80.8,512,64,495.3,64,474.7V277.3H26.7C12,277.3,0,265.4,0,250.7c0-7.1,2.9-14,7.9-19l237-227.2
	c6.2-5.9,16-5.9,22.1,0l236.8,227c5.2,5.3,8.1,12.2,8.1,19.2c0,14.7-12,26.7-26.7,26.7H448v197.3C448,495.3,431.2,512,410.7,512z
	 M341.3,480h69.3c2.9,0,5.3-2.4,5.3-5.3V261.3c0-8.8,7.2-16,16-16h40.1L256,38.2L39.9,245.3H80c8.8,0,16,7.2,16,16v213.3
	c0,2.9,2.4,5.3,5.3,5.3h69.3V357.3c0-20.6,16.7-37.3,37.3-37.3h96c20.6,0,37.3,16.7,37.3,37.3V480z"/>
</svg>
