<?xml version="1.0" encoding="utf-8"?>
<!-- Generator: Adobe Illustrator 26.5.0, SVG Export Plug-In . SVG Version: 6.00 Build 0)  -->
<svg version="1.1" id="Capa_1" xmlns="http://www.w3.org/2000/svg" xmlns:xlink="http://www.w3.org/1999/xlink" x="0px" y="0px"
	 viewBox="0 0 512 512" style="enable-background:new 0 0 512 512;" xml:space="preserve">
<style type="text/css">
	.st0{fill:#A360FF;}
	.st1{fill:#7900FF;}
	.st2{fill:#999999;}
	.st3{fill:#FFFFFF;}
</style>
<g>
	<path class="st2" d="M472.5,69.6c-3.8-0.9-7.8-1.4-11.7-1.4H114.9l-13-55.1C100.1,5.5,93.3,0,85.3,0H17.1C7.6,0,0,7.7,0,17.1
		s7.6,17.1,17.1,17.1h54.7l60.3,256.4c-28.1,2.3-49,27-46.7,55.1c2.2,26.6,24.4,47,51.1,46.9h290.1c9.4,0,17.1-7.6,17.1-17.1
		s-7.6-17.1-17.1-17.1H136.5c-9.4,0-17.1-7.6-17.1-17.1c0-9.4,7.6-17.1,17.1-17.1h288.1c23.8,0.1,44.4-16.3,49.8-39.5l36.2-153.6
		C517.1,103.7,500,76.1,472.5,69.6z M477.4,123.4L441.2,277c-1.8,7.7-8.7,13.2-16.6,13.2H167.1l-44.2-187.7h337.9
		c9.6,0.2,17.2,8.1,17,17.7C477.8,121.2,477.6,122.3,477.4,123.4z"/>
	<path class="st2" d="M375.4,409.6c-28.3,0-51.2,22.9-51.2,51.2s22.9,51.2,51.2,51.2c28.3,0,51.2-22.9,51.2-51.2
		S403.7,409.6,375.4,409.6z M375.4,477.9c-9.4,0-17.1-7.6-17.1-17.1s7.6-17.1,17.1-17.1c9.4,0,17.1,7.6,17.1,17.1
		S384.9,477.9,375.4,477.9z"/>
	<path class="st2" d="M187.7,409.6c-28.3,0-51.2,22.9-51.2,51.2s22.9,51.2,51.2,51.2c28.3,0,51.2-22.9,51.2-51.2
		S216,409.6,187.7,409.6z M187.7,477.9c-9.4,0-17.1-7.6-17.1-17.1s7.6-17.1,17.1-17.1c9.4,0,17.1,7.6,17.1,17.1
		S197.2,477.9,187.7,477.9z"/>
</g>
</svg>
