<?xml version="1.0" encoding="utf-8"?>
<!-- Generator: Adobe Illustrator 26.5.0, SVG Export Plug-In . SVG Version: 6.00 Build 0)  -->
<svg version="1.1" id="Capa_1" xmlns="http://www.w3.org/2000/svg" xmlns:xlink="http://www.w3.org/1999/xlink" x="0px" y="0px"
	 viewBox="0 0 512 512" style="enable-background:new 0 0 512 512;" xml:space="preserve">
<style type="text/css">
	.st0{fill:#CC3333;}
	.st1{fill:#6600FF;}
	.st2{fill:#339933;}
	.st3{fill:#A360FF;}
	.st4{fill:#7900FF;}
	.st5{fill:#999999;}
	.st6{fill:#FFFFFF;}
	.st7{fill:#CCCCCC;}
	.st8{fill:#666666;}
	.st9{fill:#914DFD;}
	.st10{fill:#A166FD;}
	.st11{fill:#D1B0FF;}
	.st12{fill:#E0CCFF;}
	.st13{fill:#A366FF;}
	.st14{fill:#944DFF;}
	.st15{fill:#F2F2F2;}
	.st16{clip-path:url(#SVGID_00000054960971206182262960000002248398321912101543_);}
	.st17{clip-path:url(#SVGID_00000034088155030217288500000006377067792052667804_);}
	.st18{clip-path:url(#SVGID_00000070076807538798921600000013476786926968509849_);}
	.st19{clip-path:url(#SVGID_00000157987812708176187990000005115167425471882672_);}
	.st20{clip-path:url(#SVGID_00000057831908394967422070000007435783778535462335_);}
	.st21{clip-path:url(#SVGID_00000130637118567624467530000000100004098173257385_);}
	.st22{clip-path:url(#SVGID_00000161614784403520762750000001747690260700337336_);}
	.st23{clip-path:url(#SVGID_00000132080017134367742150000001434652078104912310_);}
	.st24{clip-path:url(#SVGID_00000103983588547307829700000009689582018057052076_);}
	.st25{clip-path:url(#SVGID_00000115472614657656664770000001845981423985050044_);}
	.st26{clip-path:url(#SVGID_00000000197727848758113490000000665051071072030370_);}
	.st27{clip-path:url(#SVGID_00000177483364968305689030000004582686022459736963_);}
	.st28{clip-path:url(#SVGID_00000032610824485867302900000013452347908018207156_);}
	.st29{clip-path:url(#SVGID_00000153685180067685001460000004308938436756388794_);}
	.st30{clip-path:url(#SVGID_00000014632085111022715540000008488950884203145094_);}
	.st31{clip-path:url(#SVGID_00000106863807158565616550000007383936476643065766_);}
	.st32{clip-path:url(#SVGID_00000039843584140412772940000014049527784349218181_);}
	.st33{clip-path:url(#SVGID_00000122711588396407896030000000858503158560380838_);}
	.st34{clip-path:url(#SVGID_00000003825318466386076640000018167138999863021191_);}
	.st35{clip-path:url(#SVGID_00000069368094575721671690000006972081167410179003_);}
	.st36{clip-path:url(#SVGID_00000103240521585630430050000017270343127655435402_);}
	.st37{clip-path:url(#SVGID_00000020392466563286641680000000517032639953153727_);}
	.st38{clip-path:url(#SVGID_00000028296242488214593960000009061051967000179881_);}
	.st39{clip-path:url(#SVGID_00000183949676535573969040000013780979572340683947_);}
	.st40{clip-path:url(#SVGID_00000050661110701255697060000000355576032521628090_);}
</style>
<g>
	<path class="st6" d="M490.7,234.7H448V192c0-11.8-9.6-21.3-21.3-21.3c-11.8,0-21.3,9.6-21.3,21.3v42.7h-42.7
		c-11.8,0-21.3,9.6-21.3,21.3s9.6,21.3,21.3,21.3h42.7V320c0,11.8,9.6,21.3,21.3,21.3c11.8,0,21.3-9.6,21.3-21.3v-42.7h42.7
		c11.8,0,21.3-9.6,21.3-21.3S502.4,234.7,490.7,234.7z"/>
	<path class="st6" d="M192,256c70.7,0,128-57.3,128-128S262.7,0,192,0S64,57.3,64,128C64.1,198.7,121.3,255.9,192,256z M192,42.7
		c47.1,0,85.3,38.2,85.3,85.3s-38.2,85.3-85.3,85.3s-85.3-38.2-85.3-85.3S144.9,42.7,192,42.7z"/>
	<path class="st6" d="M192,298.7c-106,0.1-191.9,86-192,192C0,502.4,9.6,512,21.3,512c11.8,0,21.3-9.6,21.3-21.3
		c0-82.5,66.9-149.3,149.3-149.3c82.5,0,149.3,66.9,149.3,149.3c0,11.8,9.6,21.3,21.3,21.3c11.8,0,21.3-9.6,21.3-21.3
		C383.9,384.7,298,298.8,192,298.7z"/>
</g>
</svg>
