<?xml version="1.0" encoding="utf-8"?>
<!-- Generator: Adobe Illustrator 26.5.0, SVG Export Plug-In . SVG Version: 6.00 Build 0)  -->
<svg version="1.1" id="Capa_1" xmlns="http://www.w3.org/2000/svg" xmlns:xlink="http://www.w3.org/1999/xlink" x="0px" y="0px"
	 viewBox="0 0 512 512" style="enable-background:new 0 0 512 512;" xml:space="preserve">
<style type="text/css">
	.st0{fill:#CC3333;}
	.st1{fill:#6600FF;}
	.st2{fill:#339933;}
	.st3{fill:#A360FF;}
	.st4{fill:#7900FF;}
	.st5{fill:#999999;}
	.st6{fill:#FFFFFF;}
	.st7{fill:#CCCCCC;}
	.st8{fill:#666666;}
	.st9{fill:#914DFD;}
	.st10{fill:#A166FD;}
	.st11{fill:#D1B0FF;}
	.st12{fill:#E0CCFF;}
	.st13{fill:#A366FF;}
	.st14{fill:#944DFF;}
	.st15{fill:#F2F2F2;}
	.st16{clip-path:url(#SVGID_00000041259548816165259460000012770512677685204138_);}
	.st17{clip-path:url(#SVGID_00000046301289624978637920000004205379672373384344_);}
	.st18{clip-path:url(#SVGID_00000155146195936027084200000016395327765402497967_);}
	.st19{clip-path:url(#SVGID_00000106859026108412914290000004724841205798669470_);}
	.st20{clip-path:url(#SVGID_00000076605779769763773100000000949958475099022212_);}
	.st21{clip-path:url(#SVGID_00000040545476898682915190000000173543165313135258_);}
	.st22{clip-path:url(#SVGID_00000162322481245940672450000004221462895520047793_);}
	.st23{clip-path:url(#SVGID_00000133500127357131403880000011791498585548656313_);}
	.st24{clip-path:url(#SVGID_00000036253216802763073980000010923482222819441308_);}
	.st25{clip-path:url(#SVGID_00000034805841856069967020000014320630570941505152_);}
	.st26{clip-path:url(#SVGID_00000080175162697069748620000002806743174016937113_);}
	.st27{clip-path:url(#SVGID_00000026885726720344702240000007202200263594973836_);}
	.st28{clip-path:url(#SVGID_00000005245715653375190710000000694543801380382616_);}
	.st29{clip-path:url(#SVGID_00000101818882129910244370000007103795205387323568_);}
	.st30{clip-path:url(#SVGID_00000170965486308382428950000002005344800428620422_);}
	.st31{clip-path:url(#SVGID_00000031191080515034941060000002743195045362402988_);}
	.st32{clip-path:url(#SVGID_00000168114195794863489330000005545069984979298187_);}
	.st33{clip-path:url(#SVGID_00000175293322369585149470000015118703263029490620_);}
	.st34{clip-path:url(#SVGID_00000165927243762549342120000009408271044932187797_);}
	.st35{clip-path:url(#SVGID_00000172426417110565275630000016587511589496754565_);}
	.st36{clip-path:url(#SVGID_00000092426389208397158700000013395018421324805765_);}
	.st37{clip-path:url(#SVGID_00000003105283304110891590000018160165892383262124_);}
	.st38{clip-path:url(#SVGID_00000014619797479272833010000005897200536826782877_);}
	.st39{clip-path:url(#SVGID_00000119096040916840547240000015188923261740639935_);}
	.st40{clip-path:url(#SVGID_00000048499639751387948470000009355594920072161211_);}
</style>
<g>
	<path class="st6" d="M496,64v336c0,17.6-14.3,32-32,32H48c-17.6,0-32-14.3-32-32V64c0-17.6,14.3-32,32-32h416
		C481.6,32,496,46.4,496,64z"/>
	<path class="st12" d="M496,64v336c0,17.6-14.3,32-32,32h-48c17.6,0,32-14.3,32-32V64c0-17.6-14.3-32-32-32h48
		C481.6,32,496,46.4,496,64z"/>
	<path class="st13" d="M496,64v56c0,4.4-3.6,8-8,8H24c-4.4,0-8-3.6-8-8V64c0-17.6,14.3-32,32-32h416C481.6,32,496,46.4,496,64z"/>
	<path class="st14" d="M496,64v56c0,4.4-3.6,8-8,8h-48c4.4,0,8-3.6,8-8V64c0-17.6-14.3-32-32-32h48C481.6,32,496,46.4,496,64z"/>
	<path class="st15" d="M136,24v40c0,13.2-10.8,24-24,24S88,77.2,88,64V24c0-13.2,10.8-24,24-24S136,10.8,136,24z"/>
	<path class="st7" d="M136,24v40c0,18.6-20.3,30-36,20.8c7.2-4.1,12-11.9,12-20.8V24c0-8.9-4.8-16.6-12-20.8
		C115.8-5.9,136,5.4,136,24z"/>
	<path class="st15" d="M424,24v40c0,13.2-10.8,24-24,24s-24-10.8-24-24V24c0-13.2,10.8-24,24-24S424,10.8,424,24z"/>
	<path class="st7" d="M424,24v40c0,18.6-20.3,30-36,20.8c7.2-4.1,12-11.9,12-20.8V24c0-8.9-4.8-16.6-12-20.8
		C403.7-5.9,424,5.4,424,24z"/>
	<path class="st12" d="M296,240v72c0,37-28,67.5-64,71.5c0,48.1,0,45.7,0.1,48.5h-16c-0.1-2.7-0.1-0.6-0.1-48.5
		c-35.9-4-64-34.5-64-71.5v-72c0-17.6,14.3-32,32-32c4.4,0,8,3.6,8,8c0,4.4-3.6,8-8,8c-8.8,0-16,7.2-16,16v72c0,30.9,25.1,56,56,56
		s56-25.1,56-56v-72c0-8.8-7.2-16-16-16c-4.4,0-8-3.6-8-8c0-4.4,3.6-8,8-8C281.6,208,296,222.4,296,240L296,240z"/>
	<path class="st12" d="M424,336c0,23.7-17.3,43.5-40,47.3c0,48.4,0,46-0.1,48.7h-16c0.2-2.7,0.1-0.1,0.1-48.7
		c-22.7-3.8-40-23.6-40-47.3c0-26.5,21.5-48,48-48C402.5,288,424,309.5,424,336z"/>
	<circle class="st15" cx="344" cy="336" r="48"/>
	<path class="st7" d="M392,336c0,33.1-32.9,56.3-64,45.3c18.6-6.6,32-24.4,32-45.3s-13.4-38.7-32-45.3C359.2,279.7,392,303,392,336z
		"/>
	<path class="st10" d="M268,512c-46.3,0-84-37.7-84-84v-52c0-4.4,3.6-8,8-8s8,3.6,8,8v52c0,37.5,30.5,68,68,68s68-30.5,68-68v-84
		c0-4.4,3.6-8,8-8s8,3.6,8,8v84C352,474.3,314.3,512,268,512z"/>
	<g>
		<path class="st9" d="M192,384c-39.7,0-72-32.3-72-72v-72c0-17.6,14.4-32,32-32c4.4,0,8,3.6,8,8c0,4.4-3.6,8-8,8
			c-8.8,0-16,7.2-16,16v72c0,30.9,25.1,56,56,56s56-25.1,56-56v-72c0-8.8-7.2-16-16-16c-4.4,0-8-3.6-8-8c0-4.4,3.6-8,8-8
			c17.6,0,32,14.4,32,32v72C264,351.7,231.7,384,192,384z"/>
		<path class="st9" d="M344,352c-8.8,0-16-7.2-16-16s7.2-16,16-16s16,7.2,16,16S352.8,352,344,352z M344,336L344,336
			C344,336,344,336,344,336z"/>
	</g>
</g>
</svg>
