<?xml version="1.0" encoding="utf-8"?>
<!-- Generator: Adobe Illustrator 26.5.0, SVG Export Plug-In . SVG Version: 6.00 Build 0)  -->
<svg version="1.1" id="Capa_1" xmlns="http://www.w3.org/2000/svg" xmlns:xlink="http://www.w3.org/1999/xlink" x="0px" y="0px"
	 viewBox="0 0 512 512" style="enable-background:new 0 0 512 512;" xml:space="preserve">
<style type="text/css">
	.st0{fill:#A360FF;}
	.st1{fill:#7900FF;}
	.st2{fill:#999999;}
	.st3{fill:#FFFFFF;}
</style>
<g>
	<path class="st1" d="M79.1,154.6C31.8,154.6,0,186.3,0,233.4c0,46.4,31.9,78.9,77.6,78.9c20.9,0,38.3-7,50.5-19.9v17.3h30v-76.3
		C158,186.3,126.3,154.6,79.1,154.6z M79.1,184.5c29.5,0,48.6,19.2,48.6,48.9c0,29.7-19.1,48.9-48.6,48.9
		c-29.9,0-49.2-19.2-49.2-48.9C30,203.7,49.3,184.5,79.1,184.5z"/>
	<g>
		<path class="st1" d="M372.1,250.6l33.4-94.8l-0.5-1.3h-31.6l0.9,2.6h-0.2l-37.6,103.5l-38-106.2h-17.8H267h-7.6
			c-47.2,0-78.9,31.7-78.9,78.9v76.3h30v-76.3c0-29.7,19.2-48.9,48.9-48.9h18.4l43.4,120.5l-18.7,52.4H334L372.1,250.6L372.1,250.6z
			"/>
		<polygon class="st1" points="480.7,157.2 443,260.7 414.2,180 399.1,225.8 427.6,305.1 408.9,357.4 440.5,357.4 512,157.2 		"/>
	</g>
</g>
</svg>
